<?xml version="1.0" encoding="utf-8"?>
<!-- Generator: Adobe Illustrator 16.0.0, SVG Export Plug-In . SVG Version: 6.00 Build 0)  -->
<!DOCTYPE svg PUBLIC "-//W3C//DTD SVG 1.1//EN" "http://www.w3.org/Graphics/SVG/1.1/DTD/svg11.dtd">
<svg version="1.1" id="Layer_1" xmlns="http://www.w3.org/2000/svg" xmlns:xlink="http://www.w3.org/1999/xlink" x="0px" y="0px"
	 width="300px" height="300px" viewBox="0 0 300 300" enable-background="new 0 0 300 300" xml:space="preserve">
<rect x="6.5" y="4" fill="#FFE4BF" stroke="#F15A29" stroke-width="20" stroke-miterlimit="10" width="288" height="292"/>
<polygon fill="#EC008C" stroke="#F15A29" stroke-width="7" stroke-miterlimit="10" points="143,116.5 88.939,140.136 
	41.439,105.136 48,46.5 102.061,22.864 149.561,57.864 "/>
<polygon fill="#EC008C" stroke="#F15A29" stroke-width="7" stroke-miterlimit="10" points="189.5,195 135.653,226.266 
	81.653,195.266 81.5,133 135.347,101.735 189.347,132.734 "/>
<polygon fill="#EC008C" stroke="#F15A29" stroke-width="7" stroke-miterlimit="10" points="198,126 152.462,115.875 138.462,71.375 
	170,37 215.538,47.125 229.538,91.625 "/>
<polygon fill="#EC008C" stroke="#F15A29" stroke-width="7" stroke-miterlimit="10" points="213.5,230.5 156.22,266.712 
	96.22,235.212 93.5,167.5 150.78,131.289 210.78,162.788 "/>
<polygon fill="#EC008C" stroke="#F15A29" stroke-width="7" stroke-miterlimit="10" points="221,180 177.977,174.791 
	160.977,134.927 187,100.272 230.023,105.482 247.023,145.346 "/>
</svg>
