<?xml version="1.0" encoding="utf-8"?>
<!-- Generator: Adobe Illustrator 16.0.0, SVG Export Plug-In . SVG Version: 6.00 Build 0)  -->
<!DOCTYPE svg PUBLIC "-//W3C//DTD SVG 1.1//EN" "http://www.w3.org/Graphics/SVG/1.1/DTD/svg11.dtd">
<svg version="1.1" id="Layer_1" xmlns="http://www.w3.org/2000/svg" xmlns:xlink="http://www.w3.org/1999/xlink" x="0px" y="0px"
	 width="300px" height="300px" viewBox="0 0 300 300" enable-background="new 0 0 300 300" xml:space="preserve">
<rect x="6.5" y="4" fill="#ED1C24" stroke="#F15A29" stroke-width="20" stroke-miterlimit="10" width="288" height="292"/>
<polygon fill="#ED1C24" stroke="#FFF200" stroke-width="10" stroke-miterlimit="10" points="150.5,106.5 120.864,94.467 
	94.15,112.059 96.437,80.155 71.451,60.185 102.5,52.5 113.771,22.566 130.675,49.721 162.627,51.191 142.024,75.658 "/>
<polygon fill="#ED1C24" stroke="#FFF200" stroke-width="10" stroke-miterlimit="10" points="137.5,226 101.174,215.417 
	71.863,239.342 70.703,201.523 38.892,181.04 74.5,168.25 84.151,131.666 107.318,161.579 145.094,159.453 123.804,190.73 "/>
<polygon fill="#ED1C24" stroke="#FFF200" stroke-width="10" stroke-miterlimit="10" points="225.5,142.5 193.335,131.345 
	165.911,151.518 166.581,117.479 138.921,97.631 171.5,87.75 181.829,55.311 201.295,83.241 235.338,83.041 214.789,110.185 "/>
<polygon fill="#ED1C24" stroke="#FFF200" stroke-width="10" stroke-miterlimit="10" points="171,185.504 135.582,171.508 
	103.974,192.75 106.34,154.74 76.37,131.243 113.25,121.748 126.336,85.984 146.763,118.125 184.82,119.519 160.565,148.878 "/>
<polygon fill="#ED1C24" stroke="#FFF200" stroke-width="10" stroke-miterlimit="10" points="241.5,227.5 205.04,214.395 
	173.574,236.999 174.772,198.274 143.55,175.334 180.75,164.506 192.92,127.723 214.713,159.756 253.456,159.964 229.725,190.589 
	"/>
</svg>
