<?xml version="1.0" encoding="utf-8"?>
<!-- Generator: Adobe Illustrator 16.0.0, SVG Export Plug-In . SVG Version: 6.00 Build 0)  -->
<!DOCTYPE svg PUBLIC "-//W3C//DTD SVG 1.1//EN" "http://www.w3.org/Graphics/SVG/1.1/DTD/svg11.dtd">
<svg version="1.1" id="Layer_1" xmlns="http://www.w3.org/2000/svg" xmlns:xlink="http://www.w3.org/1999/xlink" x="0px" y="0px"
	 width="300px" height="300px" viewBox="0 0 300 300" enable-background="new 0 0 300 300" xml:space="preserve">
<rect x="6.5" y="4" fill="#ED1C24" stroke="#F15A29" stroke-width="20" stroke-miterlimit="10" width="288" height="292"/>
<path fill="#0EF4FF" stroke="#00AEEF" stroke-width="20" stroke-miterlimit="10" d="M213,243.5c0,6.627-5.373,12-12,12h-55
	c-6.627,0-12-5.373-12-12V131c0-6.627,5.373-12,12-12h55c6.627,0,12,5.373,12,12V243.5z"/>
<path fill="#0EF4FF" stroke="#00AEEF" stroke-width="20" stroke-miterlimit="10" d="M156,117c0,6.627-5.373,12-12,12H78
	c-6.627,0-12-5.373-12-12V86c0-6.627,5.373-12,12-12h66c6.627,0,12,5.373,12,12V117z"/>
</svg>
