<?xml version="1.0" encoding="utf-8"?>
<!-- Generator: Adobe Illustrator 16.0.0, SVG Export Plug-In . SVG Version: 6.00 Build 0)  -->
<!DOCTYPE svg PUBLIC "-//W3C//DTD SVG 1.1//EN" "http://www.w3.org/Graphics/SVG/1.1/DTD/svg11.dtd">
<svg version="1.1" id="Layer_1" xmlns="http://www.w3.org/2000/svg" xmlns:xlink="http://www.w3.org/1999/xlink" x="0px" y="0px"
	 width="300px" height="300px" viewBox="0 0 300 300" enable-background="new 0 0 300 300" xml:space="preserve">
<rect x="6.5" y="4" fill="#ED1C24" stroke="#F15A29" stroke-width="20" stroke-miterlimit="10" width="288" height="292"/>
<g>
	<polygon fill="#ED1C24" points="135,109.5 109.554,141.574 69.054,135.574 54,97.5 79.446,65.426 119.946,71.426 	"/>
	<path fill="#2E3192" d="M135,109.5c-1.539,3.135-3.166,6.199-4.839,9.227c-0.826,1.522-1.677,3.025-2.532,4.524
		c-0.846,1.507-1.708,3-2.585,4.482c-1.726,2.986-3.519,5.919-5.299,8.862c-0.89,1.471-1.813,2.916-2.718,4.376
		c-0.915,1.451-1.807,2.922-2.741,4.358l-1.585,2.436l-4.032-0.215c-3.422-0.182-6.853-0.306-10.268-0.537
		c-3.415-0.233-6.839-0.403-10.246-0.688c-3.408-0.276-6.821-0.521-10.226-0.821c-3.405-0.296-6.805-0.627-10.205-0.962
		l-4.781-0.472l-2.321-5.163c-5.602-12.46-10.891-25.044-15.92-37.731l-2.127-5.364l3.592-4.526
		c8.483-10.69,17.188-21.205,26.158-31.509l3.726-4.28l4.727,0.938c3.351,0.665,6.701,1.331,10.046,2.036
		c3.347,0.69,6.683,1.454,10.024,2.178c3.344,0.708,6.669,1.544,10.005,2.312c3.336,0.762,6.654,1.647,9.982,2.465l3.931,0.965
		l0.822,2.805c0.482,1.644,0.906,3.311,1.36,4.966c0.443,1.659,0.903,3.312,1.333,4.976c0.845,3.335,1.713,6.661,2.495,10.02
		c0.812,3.348,1.565,6.719,2.279,10.105C133.776,102.646,134.44,106.052,135,109.5z M135,109.5c-1.949-2.898-3.793-5.838-5.582-8.8
		c-1.794-2.959-3.551-5.934-5.248-8.932c-1.727-2.986-3.368-6.006-5.031-9.017c-0.826-1.508-1.62-3.028-2.431-4.542
		c-0.801-1.518-1.631-3.024-2.404-4.553l4.752,3.771c-3.422-0.182-6.854-0.296-10.268-0.535c-3.415-0.232-6.839-0.396-10.245-0.688
		c-3.408-0.276-6.822-0.513-10.226-0.822c-3.405-0.295-6.805-0.629-10.204-0.964l8.453-3.342
		c-7.994,11.079-16.254,21.946-24.734,32.639l1.465-9.891c5.006,12.696,9.752,25.495,14.187,38.417l-7.103-5.635
		c3.351,0.665,6.701,1.334,10.045,2.038c3.345,0.699,6.683,1.455,10.024,2.179c3.343,0.715,6.669,1.545,10.004,2.313
		c3.335,0.769,6.654,1.646,9.982,2.463l-5.618,2.221c1.186-1.237,2.415-2.439,3.621-3.661c1.215-1.213,2.412-2.441,3.643-3.643
		c2.461-2.402,4.91-4.815,7.425-7.175c1.243-1.191,2.501-2.371,3.776-3.537c1.266-1.173,2.535-2.344,3.83-3.494
		C129.684,113.992,132.297,111.711,135,109.5z"/>
</g>
<g>
	<polygon fill="#ED1C24" points="200.5,175 164.063,196.11 127.563,175.11 127.5,133 163.937,111.89 200.437,132.89 	"/>
	<path fill="#2E3192" d="M200.5,175c-2.875,2.038-5.761,4.056-8.675,6.027c-2.918,1.963-5.807,3.977-8.751,5.896l-8.8,5.812
		l-4.428,2.858l-4.433,2.848l-1.207,0.775l-1.486-0.771c-3.118-1.618-6.255-3.201-9.356-4.848l-9.309-4.93l-9.278-4.984
		l-9.248-5.036l-2-1.089l-0.045-2.441l-0.195-10.527l-0.142-10.527c-0.104-7.018-0.104-14.036-0.146-21.055l-0.016-2.604l2.26-1.295
		c6.088-3.491,12.152-7.024,18.272-10.461l9.17-5.171l9.198-5.124l2.139-1.191l1.952,1.185l9.002,5.463l8.973,5.515l8.94,5.57
		c2.985,1.849,5.928,3.771,8.895,5.652l1.422,0.902l-0.065,1.439l-0.48,10.528l-0.605,10.528c-0.181,3.51-0.469,7.02-0.701,10.529
		c-0.114,1.754-0.255,3.509-0.402,5.264C200.811,171.49,200.67,173.245,200.5,175z M200.5,175c-0.176-1.754-0.321-3.509-0.469-5.263
		c-0.153-1.755-0.299-3.509-0.419-5.264c-0.243-3.509-0.542-7.018-0.732-10.526l-0.637-10.526l-0.513-10.526l1.356,2.341
		c-3.117-1.619-6.257-3.198-9.355-4.849l-9.31-4.93l-9.277-4.985l-9.248-5.037l4.09-0.006l-9.02,5.432l-9.047,5.383
		c-6.026,3.6-12.107,7.103-18.164,10.648l2.243-3.899c-0.021,7.019,0,14.037-0.083,21.056l-0.11,10.527l-0.163,10.528l-2.044-3.53
		l9.001,5.464l8.972,5.516l8.941,5.57c2.981,1.854,5.928,3.77,8.894,5.651l-2.692,0.005l4.676-2.43l4.682-2.419l9.418-4.744
		c3.129-1.6,6.313-3.104,9.467-4.66C194.116,177.98,197.302,176.48,200.5,175z"/>
</g>
<g>
	<polygon fill="#ED1C24" points="120,239.5 74.537,254.244 39.037,222.244 49,175.5 94.463,160.756 129.963,192.756 	"/>
	<path fill="#2E3192" d="M120.309,240.451c-1.682,1.27-3.407,2.407-5.137,3.526c-1.736,1.102-3.485,2.165-5.248,3.187
		c-1.761,1.025-3.537,2.004-5.319,2.964c-0.888,0.489-1.791,0.934-2.685,1.403c-0.896,0.463-1.791,0.935-2.696,1.368l-2.71,1.328
		c-0.901,0.449-1.817,0.851-2.726,1.278c-1.815,0.858-3.645,1.671-5.483,2.46c-0.919,0.395-1.83,0.813-2.755,1.188l-2.772,1.135
		c-1.844,0.768-3.702,1.495-5.565,2.207l-4.262,1.63l-4.222-3.438c-3.092-2.518-6.138-5.087-9.104-7.746
		c-1.476-1.337-2.913-2.718-4.321-4.129c-1.411-1.409-2.766-2.881-4.103-4.372c-0.68-0.733-1.326-1.504-1.979-2.266
		c-0.658-0.758-1.304-1.527-1.937-2.313c-1.289-1.545-2.517-3.156-3.77-4.741l-3.736-4.777c-1.236-1.603-2.493-3.183-3.766-4.745
		l-2.046-2.509l0.653-1.786l1.035-2.834c0.354-0.942,0.646-1.897,0.973-2.847c0.651-1.897,1.217-3.813,1.752-5.734
		c0.536-1.922,1.018-3.855,1.448-5.8c0.224-0.971,0.417-1.947,0.611-2.925c0.189-0.978,0.406-1.949,0.571-2.932
		c0.351-1.962,0.686-3.927,0.961-5.904c0.286-1.975,0.537-3.958,0.741-5.95c0.444-3.978,0.669-8.002,0.933-12.019l0.149-2.279
		l3.516-1.787c3.595-1.827,7.195-3.637,10.809-5.403c1.804-0.894,3.623-1.741,5.446-2.572c1.822-0.838,3.658-1.631,5.498-2.413
		c3.689-1.535,7.407-2.981,11.117-4.452c3.712-1.464,7.418-2.949,11.141-4.38l4.921-1.891l5.036,4.014
		c1.561,1.243,3.106,2.502,4.635,3.781c1.536,1.27,3.074,2.538,4.58,3.842c3.021,2.598,5.979,5.265,8.875,8
		c2.9,2.731,5.729,5.542,8.517,8.396c1.401,1.42,2.774,2.872,4.148,4.322c1.38,1.442,2.75,2.897,4.094,4.38l4.151,4.574
		l-1.311,4.186c-0.598,1.908-1.192,3.818-1.836,5.717c-0.63,1.902-1.256,3.805-1.932,5.696c-1.308,3.794-2.712,7.566-4.174,11.327
		l-1.118,2.816l-1.144,2.811c-0.78,1.869-1.575,3.736-2.403,5.596c-0.826,1.86-1.682,3.714-2.566,5.562
		c-0.455,0.921-0.89,1.847-1.372,2.762c-0.478,0.917-0.934,1.837-1.445,2.746l-0.232,0.413L120.309,240.451z M118.975,238.567
		c-0.057-0.792-0.104-1.582-0.153-2.373c-0.067-1.032-0.087-2.055-0.126-3.081c-0.054-2.047-0.08-4.089-0.076-6.124
		c0.002-2.036,0.038-4.064,0.088-6.09l0.101-3.033l0.127-3.026c0.198-4.03,0.454-8.048,0.807-12.045
		c0.154-2.004,0.358-3.996,0.559-5.989c0.186-1.997,0.422-3.982,0.655-5.969l2.84,8.759c-1.613-1.185-3.202-2.396-4.78-3.62
		c-1.584-1.216-3.17-2.432-4.728-3.678c-3.128-2.479-6.216-5.002-9.232-7.604c-3.021-2.598-5.979-5.264-8.875-8
		c-1.453-1.363-2.873-2.761-4.295-4.157c-1.43-1.389-2.842-2.796-4.24-4.219l9.957,2.122c-3.854,1.026-7.726,1.998-11.59,2.992
		c-3.867,0.987-7.727,1.998-11.614,2.92c-1.949,0.446-3.901,0.882-5.868,1.273c-1.965,0.397-3.935,0.778-5.919,1.113
		c-3.963,0.69-7.94,1.338-11.923,1.969l3.666-4.066c-1.396,3.774-2.832,7.541-4.049,11.354c-0.626,1.902-1.206,3.815-1.75,5.735
		c-0.555,1.918-1.05,3.849-1.53,5.782c-0.25,0.965-0.448,1.941-0.674,2.911c-0.221,0.971-0.444,1.941-0.635,2.919
		c-0.399,1.951-0.748,3.913-1.042,5.886c-0.295,1.974-0.56,3.953-0.739,5.951c-0.089,0.999-0.211,1.991-0.272,2.996l-0.21,3.01
		l-1.393-4.295c1.685,1.104,3.386,2.191,5.108,3.255l5.139,3.223c1.706,1.082,3.436,2.137,5.105,3.259
		c0.847,0.549,1.679,1.111,2.501,1.688c0.825,0.571,1.659,1.134,2.458,1.734c1.621,1.176,3.225,2.371,4.772,3.628
		c1.55,1.255,3.072,2.541,4.554,3.871c2.951,2.675,5.822,5.438,8.646,8.253l-8.483-1.808c1.926-0.517,3.857-1.019,5.801-1.479
		l2.911-0.707c0.969-0.241,1.952-0.437,2.928-0.656c1.951-0.439,3.91-0.855,5.883-1.226c0.986-0.188,1.964-0.399,2.957-0.565
		l2.974-0.515c0.988-0.181,1.989-0.323,2.986-0.475c1-0.146,1.991-0.314,2.998-0.439c2.006-0.27,4.019-0.52,6.046-0.723
		c2.026-0.207,4.066-0.373,6.118-0.5C115.287,238.611,117.116,238.557,118.975,238.567z"/>
</g>
<g>
	<polygon fill="#ED1C24" points="215,125.5 178.586,127.57 158.586,97.07 175,64.5 211.414,62.43 231.414,92.93 	"/>
	<path fill="#2E3192" d="M214.679,127.594c-2.859,0.669-5.722,1.296-8.583,1.923c-3.007,0.669-6.014,1.32-9.023,1.928l-9.027,1.865
		c-3.008,0.633-6.019,1.225-9.029,1.813l-3.213,0.628l-3.543-4.033c-4.053-4.612-8.029-9.273-12.036-13.915
		c-3.961-4.672-7.951-9.324-11.867-14.026l-3.571-4.289l2.876-7.924c2.089-5.754,4.223-11.486,6.39-17.201
		c1.076-2.861,2.179-5.709,3.295-8.55c1.108-2.845,2.212-5.692,3.364-8.515l1.197-2.933l12.183-5.841
		c1.481-0.71,2.971-1.297,4.463-1.817c0.746-0.275,1.493-0.515,2.241-0.75c0.747-0.248,1.495-0.471,2.244-0.675
		c2.995-0.872,6.001-1.554,9.013-2.117c3.013-0.561,6.032-0.999,9.058-1.33c1.513-0.171,3.027-0.304,4.543-0.419
		c1.515-0.119,3.032-0.197,4.551-0.273l12.554-0.636l6.485,10.23c1.627,2.567,3.176,5.187,4.662,7.846
		c0.734,1.336,1.467,2.673,2.164,4.033c0.72,1.346,1.381,2.729,2.069,4.095c0.652,1.39,1.333,2.761,1.955,4.17
		c0.644,1.396,1.253,2.813,1.86,4.232c1.196,2.85,2.331,5.74,3.386,8.683l4.49,12.516l-3.545,4.111
		c-1.022,1.187-2.046,2.373-3.106,3.54c-1.057,1.169-2.129,2.331-3.237,3.474c-1.098,1.148-2.224,2.283-3.379,3.402
		c-1.139,1.128-2.362,2.213-3.539,3.322c-0.583,0.557-1.228,1.083-1.838,1.626c-0.623,0.537-1.226,1.083-1.866,1.612l-1.929,1.581
		c-0.631,0.533-1.319,1.037-1.98,1.555c-0.66,0.518-1.336,1.028-2.034,1.527c-0.688,0.504-1.379,1.007-2.103,1.493
		c-1.42,0.986-2.897,1.943-4.487,2.844L214.679,127.594z M213.121,123.314c-0.132-1.364-0.252-2.695-0.291-4.013
		c-0.04-0.871-0.047-1.726-0.051-2.578c-0.015-0.858-0.007-1.705,0.018-2.544c0.023-0.839,0.019-1.692,0.071-2.517l0.123-2.49
		c0.044-0.829,0.125-1.639,0.186-2.459c0.073-0.814,0.113-1.645,0.214-2.445c0.191-1.605,0.335-3.235,0.564-4.821
		c0.213-1.595,0.454-3.175,0.725-4.741c0.26-1.57,0.555-3.124,0.866-4.668c0.307-1.547,0.651-3.075,0.996-4.603l0.945,16.626
		c-2.277-2.141-4.477-4.333-6.613-6.567c-1.06-1.122-2.117-2.246-3.14-3.393c-1.045-1.132-2.031-2.303-3.045-3.455
		c-0.978-1.176-1.983-2.334-2.931-3.53c-0.969-1.182-1.904-2.386-2.836-3.592c-1.847-2.424-3.632-4.888-5.338-7.404l19.039,9.595
		c-1.517,0.096-3.033,0.191-4.553,0.244c-1.519,0.058-3.038,0.098-4.561,0.099c-3.044,0.014-6.093-0.079-9.149-0.295
		c-3.057-0.218-6.12-0.555-9.194-1.082c-0.769-0.119-1.537-0.254-2.308-0.417c-0.77-0.149-1.539-0.302-2.311-0.491
		c-1.542-0.348-3.088-0.762-4.641-1.3l13.38-8.773c-1.583,2.605-3.215,5.187-4.843,7.77c-1.62,2.587-3.252,5.168-4.912,7.735
		c-3.304,5.142-6.642,10.267-10.024,15.37l-0.694-12.212c2.752,5.465,5.428,10.979,8.134,16.474c2.66,5.525,5.35,11.03,7.964,16.585
		l-6.756-3.405c3.059,0.244,6.117,0.49,9.178,0.778l9.18,0.83c3.06,0.263,6.121,0.568,9.184,0.893
		C208.171,122.771,210.646,123.036,213.121,123.314z"/>
</g>
<g>
	<path fill="#2E3192" d="M231.717,234.953c-1.704,0.913-3.433,1.752-5.151,2.62c-1.717,0.874-3.454,1.685-5.184,2.521
		c-3.469,1.64-6.949,3.24-10.443,4.8c-3.493,1.563-7,3.08-10.515,4.577l-5.281,2.21c-1.763,0.731-3.522,1.472-5.294,2.175
		l-5.306,2.134c-1.767,0.718-3.549,1.388-5.322,2.084c-3.546,1.396-7.106,2.746-10.674,4.073c-1.784,0.662-3.561,1.351-5.352,1.992
		l-5.367,1.941c-1.791,0.641-3.574,1.308-5.372,1.928l-5.388,1.876l-4.471,1.556l-3.987-3.411c-2.89-2.474-5.747-4.984-8.587-7.512
		c-2.848-2.52-5.705-5.03-8.507-7.6c-1.399-1.286-2.799-2.572-4.173-3.888l-4.135-3.93l-4.072-3.999
		c-1.357-1.333-2.678-2.706-4.019-4.057c-1.344-1.348-2.654-2.732-3.972-4.108c-1.322-1.371-2.633-2.756-3.93-4.154
		c-2.617-2.773-5.174-5.612-7.754-8.425l-7.721-8.461c-2.564-2.83-5.149-5.638-7.751-8.428l-2.008-2.153l0.641-2.15l1.634-5.48
		c0.554-1.824,1.046-3.663,1.572-5.494c0.529-1.83,1.021-3.668,1.505-5.509c0.484-1.84,0.994-3.674,1.437-5.523l1.373-5.537
		l1.272-5.56c0.436-1.852,0.827-3.712,1.22-5.571c0.389-1.861,0.806-3.716,1.171-5.582c0.75-3.729,1.485-7.459,2.16-11.204
		c0.686-3.742,1.336-7.492,1.94-11.252c1.244-7.512,2.269-15.072,3.333-22.624l0.378-2.683l3.312-1.362
		c7.057-2.902,14.119-5.787,21.195-8.629c3.535-1.431,7.084-2.816,10.639-4.185c3.552-1.375,7.119-2.706,10.689-4.024
		c7.149-2.61,14.328-5.131,21.498-7.676l21.521-7.603l5.233-1.849l4.711,4.031c2.891,2.473,5.768,4.961,8.625,7.47
		c2.867,2.499,5.736,4.996,8.561,7.542c2.83,2.539,5.69,5.045,8.475,7.634c2.792,2.581,5.622,5.121,8.384,7.735l8.293,7.833
		l8.196,7.941c2.74,2.637,5.441,5.318,8.144,7.997c2.71,2.671,5.408,5.355,8.082,8.066l4.055,4.11l-1.267,4.666
		c-0.997,3.674-1.99,7.349-3.034,11.012c-1.029,3.667-2.055,7.335-3.13,10.991c-2.106,7.323-4.31,14.625-6.569,21.915l-1.717,5.462
		l-1.743,5.456c-1.18,3.634-2.373,7.265-3.601,10.889l-1.859,5.431c-0.617,1.811-1.281,3.611-1.92,5.418
		c-0.654,1.803-1.269,3.614-1.955,5.409c-0.677,1.798-1.332,3.601-2.043,5.391l-0.19,0.48L231.717,234.953z M230.482,233.139
		c0.103-1.705,0.233-3.403,0.355-5.104c0.129-1.919,0.329-3.821,0.49-5.731c0.176-1.908,0.326-3.821,0.524-5.725l0.584-5.71
		c0.402-3.805,0.838-7.602,1.288-11.396l0.701-5.685l0.728-5.68c0.999-7.566,2.055-15.119,3.208-22.651
		c0.554-3.771,1.157-7.531,1.758-11.292c0.586-3.765,1.222-7.518,1.854-11.271l2.788,8.775c-2.944-2.414-5.863-4.855-8.771-7.309
		c-2.916-2.446-5.833-4.89-8.71-7.378l-8.657-7.434l-8.561-7.542c-2.855-2.511-5.645-5.096-8.47-7.64
		c-2.833-2.536-5.591-5.155-8.379-7.74c-2.793-2.58-5.542-5.208-8.293-7.834c-2.76-2.617-5.501-5.253-8.229-7.905l9.944,2.181
		l-21.963,6.214c-7.324,2.06-14.641,4.145-21.986,6.14c-3.677,0.984-7.357,1.956-11.052,2.884
		c-3.693,0.934-7.391,1.852-11.103,2.723c-7.419,1.764-14.851,3.484-22.289,5.188l3.689-4.044
		c-2.195,7.303-4.429,14.599-6.444,21.941c-1.026,3.667-2.004,7.345-2.949,11.031c-0.954,3.684-1.849,7.38-2.728,11.079
		c-0.449,1.848-0.847,3.707-1.273,5.56c-0.421,1.854-0.845,3.707-1.224,5.57l-1.172,5.582l-1.072,5.604
		c-0.372,1.864-0.676,3.744-1.007,5.618c-0.33,1.874-0.653,3.749-0.939,5.633c-0.289,1.883-0.611,3.758-0.872,5.647l-0.81,5.661
		l-1.367-4.304c3.016,2.335,6.049,4.652,9.102,6.947l9.132,6.914c3.037,2.313,6.098,4.599,9.099,6.95
		c1.512,1.164,3.01,2.342,4.497,3.533c1.491,1.187,2.99,2.364,4.455,3.579c1.468,1.212,2.956,2.401,4.408,3.631l4.354,3.688
		l4.292,3.758c1.436,1.247,2.844,2.523,4.254,3.8c2.815,2.556,5.577,5.17,8.346,7.775c2.777,2.597,5.539,5.212,8.266,7.863
		l-8.457-1.855l5.482-1.578c1.826-0.531,3.667-1.016,5.5-1.526l5.504-1.513c1.832-0.509,3.68-0.973,5.52-1.461
		c3.68-0.976,7.366-1.929,11.067-2.836c1.851-0.454,3.692-0.936,5.549-1.369l5.565-1.32c1.852-0.448,3.716-0.859,5.577-1.279
		l5.589-1.243c3.734-0.806,7.474-1.592,11.228-2.332c3.754-0.743,7.521-1.444,11.299-2.108c1.895-0.314,3.781-0.655,5.688-0.933
		C227.087,233.629,228.778,233.364,230.482,233.139z"/>
</g>
</svg>
