<?xml version="1.0" encoding="utf-8"?>
<!-- Generator: Adobe Illustrator 16.0.0, SVG Export Plug-In . SVG Version: 6.00 Build 0)  -->
<!DOCTYPE svg PUBLIC "-//W3C//DTD SVG 1.1//EN" "http://www.w3.org/Graphics/SVG/1.1/DTD/svg11.dtd">
<svg version="1.1" id="Layer_1" xmlns="http://www.w3.org/2000/svg" xmlns:xlink="http://www.w3.org/1999/xlink" x="0px" y="0px"
	 width="300px" height="300px" viewBox="0 0 300 300" enable-background="new 0 0 300 300" xml:space="preserve">
<rect x="6.5" y="4" fill="#FFE4BF" stroke="#F15A29" stroke-width="20" stroke-miterlimit="10" width="288" height="292"/>
<polygon fill="#006838" points="183.5,182 139.541,154.449 91.924,175.043 104.542,124.722 70.243,85.8 122,82.25 148.418,37.601 
	167.788,85.729 218.415,97.056 178.629,130.35 "/>
<polygon fill="#EC008C" points="133,234 95.189,223.409 65.03,248.553 63.418,209.32 30.186,188.406 67,174.75 76.621,136.681 
	100.985,167.474 140.164,164.859 118.407,197.547 "/>
<polygon fill="#EC008C" points="238,210 195.951,186.32 152.606,207.534 162.134,160.227 128.563,125.558 176.5,120 199.098,77.36 
	219.197,121.233 266.733,129.548 231.219,162.221 "/>
</svg>
