<?xml version="1.0" encoding="utf-8"?>
<!-- Generator: Adobe Illustrator 16.0.0, SVG Export Plug-In . SVG Version: 6.00 Build 0)  -->
<!DOCTYPE svg PUBLIC "-//W3C//DTD SVG 1.1//EN" "http://www.w3.org/Graphics/SVG/1.1/DTD/svg11.dtd">
<svg version="1.1" id="Layer_1" xmlns="http://www.w3.org/2000/svg" xmlns:xlink="http://www.w3.org/1999/xlink" x="0px" y="0px"
	 width="300px" height="300px" viewBox="0 0 300 300" enable-background="new 0 0 300 300" xml:space="preserve">
<g>
	<g>
		<g>
			<g>
				<g>
					<path fill="#20B8F1" d="M201.53,91.848c0.067,1.824,7.429-2.184,8.917-2.559c-1.545-1.11-4.251-0.16-6.326,0.888
						C202.045,91.229,200.565,92.353,201.53,91.848z"/>
					<path fill="#20B8F1" d="M168.733,83.38c0,0,0.518-0.689,1.036-1.377c0.527-0.683,1.055-1.365,1.055-1.365
						s-0.484,0.328-1.211,0.818c-0.717,0.494-1.645,1.19-2.533,1.932c-1.791,1.464-3.378,3.069-3.378,3.069s1.162-0.856,2.425-1.63
						C167.379,84.032,168.733,83.38,168.733,83.38z"/>
					<path fill="#20B8F1" d="M148.182,78.829c0.638,3.536,1.21,5.148,1.818,5.66c0.305,0.256,0.62,0.237,0.959,0.046
						c0.354-0.187,0.8-0.526,1.243-0.938c0.898-0.821,1.949-1.896,2.98-2.406c0.966-0.536,2.156-0.399,2.805,1.033
						c0,0-0.02,0.827-0.039,1.654c-0.035,0.825-0.069,1.65-0.069,1.65s0.989-2.722,2.126-5.399c1.123-2.682,2.393-5.315,2.393-5.315
						c-1.473,0.077-3.11,0.55-4.683,1.195c-0.825,0.308-1.477,0.718-2.145,1.113c-0.646,0.391-1.287,0.781-1.916,1.163
						c-0.61,0.366-1.188,0.7-1.734,0.963c-0.273,0.132-0.538,0.247-0.796,0.339c-0.226,0.099-0.437,0.178-0.647,0.228
						C149.639,80.016,148.89,79.782,148.182,78.829z"/>
					<path fill="#20B8F1" d="M133.076,50.085c0.994,2.615,0.724,3.917,0.703,4.047c-0.007,0.135,0.116-0.914,2.178-2.947
						c-0.404-0.534-0.521-0.864-0.767-1.27C134.774,50.093,134.183,50.219,133.076,50.085z"/>
					<path fill="#20B8F1" d="M135.19,49.916c0.478-0.216,0.71-0.603,0.594-0.973c-0.083-0.374-0.432-0.739-0.726-0.947
						C134.493,47.578,133.983,47.8,135.19,49.916z"/>
					<path fill="#20B8F1" d="M127.201,55.521c0,0,0.135-1.362,0.312-2.731c0.172-1.368,0.386-2.741,0.386-2.741
						c-1.472-2.979-3.925-2.922-3.883-5.455C122.322,48.068,124.138,50.892,127.201,55.521z"/>
					<path fill="#20B8F1" d="M128.86,66c0,0,0.061-0.582,0.121-1.164c0.069-0.583,0.137-1.167,0.137-1.167
						C128.476,62.438,128.002,62.1,128.86,66z"/>
					<path fill="#20B8F1" d="M129.888,58.709c0,0-0.231,1.246-0.421,2.486c-0.194,1.241-0.348,2.475-0.349,2.475
						c1.093,2.057,2.62,6.425,0.46-1.862C130.806,65.859,129.847,61.885,129.888,58.709z"/>
					<path fill="#20B8F1" d="M131.836,60.363c1.098,1.288,2.221,2.289,2.899,3.652c0.695,1.36,0.952,3.071,0.616,5.736
						c1.667-1.496,1.873-4.62,1.122-7.019C135.746,60.336,133.837,58.722,131.836,60.363z"/>
					<path fill="#20B8F1" d="M148.615,93.599c0,0,0.373,1.02,0.695,2.047c0.328,1.027,0.605,2.06,0.605,2.06s0.147-1.206,0.343-2.41
						c0.191-1.205,0.432-2.408,0.432-2.408c-0.234,1.193-0.768,0.244-1.303-0.431C148.859,91.78,148.375,91.375,148.615,93.599z"/>
					<path fill="#20B8F1" d="M112.549,53.88c1.313,2.738,4.315,6.884,6.192,10.29c0,0-0.116-0.917-0.232-1.835
						c-0.104-0.922-0.208-1.844-0.208-1.844C116.787,58.917,114.736,57.814,112.549,53.88z"/>
					<path fill="#20B8F1" d="M118.742,64.17c0,0,0.047,0.342,0.117,0.855c0.07,0.512,0.166,1.195,0.3,1.866
						c0.263,1.341,0.525,2.683,0.525,2.683C121.176,69.452,120.388,67.098,118.742,64.17z"/>
					<path fill="#20B8F1" d="M134.287,80.894c0,0-0.102-0.697-0.208-1.751c-0.111-1.054-0.24-2.464-0.337-3.883
						c-0.203-2.836-0.246-5.71-0.246-5.71s-0.103,2.962-0.01,5.879c0.046,1.459,0.107,2.912,0.209,3.99
						c0.121,1.075,0.201,1.792,0.201,1.792L134.287,80.894z"/>
					<path fill="#20B8F1" d="M106.235,57.06c0,0-0.706-1.63-1.411-3.259c-0.691-1.637-1.383-3.275-1.383-3.275
						s0.993,2.507,1.985,5.014c1.031,2.486,2.062,4.972,2.062,4.972L106.235,57.06z"/>
					<path fill="#20B8F1" d="M103.357,60.378c-2.652-5.23-6.313-7.629-7.687-11.024c-0.223,0.773,0.159,2.341,0.84,4.23
						c0.69,1.885,1.711,4.079,2.677,6.149C98.411,57.195,99.657,57.119,103.357,60.378z"/>
					<path fill="#20B8F1" d="M101.934,65.831c-0.491-1.369-1.604-3.648-2.746-6.098C99.594,61.099,100.357,62.933,101.934,65.831z"
						/>
					<path fill="#20B8F1" d="M116.575,69.591c-1.042-1.521-3.652-5.558-5.481-6.825l4.903,7.021
						C116.179,69.734,116.354,69.67,116.575,69.591z"/>
					<path fill="#20B8F1" d="M116.153,70.011l-0.157-0.225c-0.637,0.167-1.115,0.231-1.327,0.247
						C114.848,70.016,115.292,69.994,116.153,70.011z"/>
					<path fill="#20B8F1" d="M116.733,69.545c-0.061,0.013-0.108,0.017-0.159,0.046C117.051,70.286,117.224,70.513,116.733,69.545z"
						/>
					<path fill="#20B8F1" d="M127.392,75.451c0.602,2.359,1.085,4.879,2.046,7.517c0.95,2.644,2.39,5.391,4.615,8.355
						c-1.057-2.739-2.205-4.96-3.378-7.356C129.51,81.567,128.312,78.997,127.392,75.451z"/>
					<path fill="#20B8F1" d="M122.7,78.443c0,0,0.563,0.244,1.127,0.488c0.556,0.251,1.111,0.501,1.111,0.501
						c-1.094-1.973-2.926-4.721-3.673-7.018c0,0,0.344,1.514,0.688,3.027C122.327,76.943,122.7,78.443,122.7,78.443z"/>
					<polygon fill="#20B8F1" points="123.429,81.15 122.7,78.443 121.855,78.091 					"/>
					<path fill="#20B8F1" d="M108.66,70.856c1.587,3.423,1.27,4.042,1.013,4.96c1.633,0.897,2.755,1.195,3.42,0.729
						C111.661,74.272,109.263,70.081,108.66,70.856z"/>
					<path fill="#20B8F1" d="M112.633,71.051c0.069,0.188,0.075,0.302,0.146,0.488C113.246,72.098,113.43,72.257,112.633,71.051z"/>
					<path fill="#20B8F1" d="M104.14,80.027c0.343,0.361,0.714,0.751,1.072,1.128c-0.311-0.389-0.605-0.759-0.919-1.153
						L104.14,80.027z"/>
					<path fill="#20B8F1" d="M114.104,77.783c1.421,1.031,0.535-0.89-0.627-3.284c0.091,0.972,0.005,1.701-0.383,2.046
						C113.736,77.572,114.183,78.237,114.104,77.783z"/>
					<path fill="#20B8F1" d="M102.553,70.344c1.338,1.228,2.514,2.228,3.663,3.121C104.346,71.476,101.306,68.497,102.553,70.344z"
						/>
					<path fill="#20B8F1" d="M111.312,69.677c-0.048-0.132-0.108-0.28-0.126-0.373C110.005,67.883,110.517,68.622,111.312,69.677z"
						/>
					<path fill="#20B8F1" d="M111.312,69.677c0.391,1.216,1.335,3.121,2.164,4.822c-0.061-0.77-0.271-1.731-0.696-2.959
						C112.385,71.075,111.818,70.349,111.312,69.677z"/>
					<path fill="#20B8F1" d="M138.332,122.956c-2.563-3.017-4.886-6.053-5.779-7.601c-0.896-1.541-0.368-1.596,2.592,1.47
						c-3.217-5.041-19.776-25.156-29.933-35.669c2.182,2.682,4.177,5.174,6.324,9.47c1.55,1.524,3.643,3.075,5.798,5.038
						c2.162,1.957,4.377,4.33,6.344,7.353c1.673,3.913-2.558-1.534-5.759-4.303c3.402,3.583,5.413,6.592,7.854,9.998
						c2.43,3.415,5.302,7.214,10.177,12.59c0,0-0.69-1.092-1.38-2.184c-0.678-1.103-1.356-2.206-1.356-2.206
						C134.688,118.618,136.828,121.533,138.332,122.956z"/>
					<path fill="#20B8F1" d="M107.58,80.282l-0.192-1.1c-1.328-0.711-3.63-2.935-8.175-7.225c1.706,3.599,3.453,5.971,5.081,8.045
						l2.698-0.76L107.58,80.282z"/>
					<path fill="#20B8F1" d="M109.268,77.705c4.777,7.189,6.169,10.746,12.328,17.772c0.627-1.228-3.594-6.296-5.117-9.82
						c-0.309,1.545-0.889,0.484-1.922-1.336c-1.037-1.816-2.476-4.427-4.683-5.837c-0.463-1.477-0.347-2.116-0.201-2.667
						c-0.999-0.568-2.144-1.341-3.456-2.353c0.142,0.151,0.245,0.26,0.371,0.394l-0.007-0.031c0.033,0.047,0.046,0.064,0.08,0.111
						c0.735,0.793,1.154,1.297,0.677,0.872c0.057,0.092,0.053,0.143,0.059,0.175c0.701,0.975,1.285,1.843,1.843,2.68
						c-1.664-0.976-1.443-1.717-1.843-2.68c-0.239-0.34-0.486-0.691-0.736-1.047c-0.027-0.03-0.049-0.055-0.072-0.08
						c0,0,0.039,0.337,0.099,0.843c0.073,0.5,0.171,1.168,0.269,1.835c0.216,1.323,0.433,2.646,0.433,2.646
						C108.552,79.801,108.899,79.216,109.268,77.705z"/>
					<path fill="#20B8F1" d="M141.442,108.346c-0.394-0.655-0.676-1.201-0.968-1.754
						C140.866,107.574,141.172,108.229,141.442,108.346z"/>
					<path fill="#20B8F1" d="M138.416,104.063c-0.461-1.115-1.997-4.214-1.172-3.639c1.54,2.123,1.896,3.67,3.23,6.168
						c-0.883-2.112-1.963-5.928-4.689-9.25l0.409,1.106c-1.043-1.128-3.063-3.92-4.96-6.536c-1.887-2.619-3.612-5.072-3.824-5.63
						C131.467,92.896,134.382,97.6,138.416,104.063z"/>
					<path fill="#20B8F1" d="M125.851,91.988c0,0,0.217,1.126,0.434,2.252c0.239,1.113,0.479,2.226,0.479,2.226
						s1.223,1.425,2.446,2.851c1.204,1.438,2.408,2.877,2.408,2.877l-2.524-3.704C130.813,99.453,127.628,94.946,125.851,91.988z"/>
					<path fill="#20B8F1" d="M101.218,76.88l-5.581-7.195c0,0,1.803,2.678,3.606,5.355c1.831,2.656,3.662,5.312,3.662,5.312
						L101.218,76.88z"/>
					<polygon fill="#20B8F1" points="99.843,79.488 94.718,73.449 97.301,77.534 					"/>
					<path fill="#20B8F1" d="M151.378,115.895l0.213,0.229C151.493,116.018,151.429,115.949,151.378,115.895z"/>
					<path fill="#20B8F1" d="M150.126,114.397l-0.024-0.033C150.148,114.426,150.168,114.452,150.126,114.397z"/>
					<path fill="#20B8F1" d="M106.16,191.772c-0.519,1.901-1.072,3.932-1.594,5.85c-0.541,1.935-1.015,3.758-1.304,5.103
						c-0.574,2.693-0.438,3.463,1.362-0.611l3.284-8.039c-0.806,0.478-1.294,0.404-1.543-0.03
						C106.101,193.598,106.049,192.768,106.16,191.772z"/>
					<path fill="#20B8F1" d="M154.03,149.332c-0.135-0.845-0.275-1.73-0.415-2.606c0.203,2.966,0.362,5.719,0.503,8.293
						C154.092,153.292,154.062,151.354,154.03,149.332z"/>
					<path fill="#20B8F1" d="M150.2,113.627c0,0,0.193,1.386,0.387,2.772c0.215,1.385,0.431,2.77,0.431,2.77
						C150.815,117.802,150.556,116.044,150.2,113.627z"/>
					<path fill="#20B8F1" d="M164.709,125.171l0.359,0.121C164.503,125.104,164.755,125.184,164.709,125.171z"/>
					<path fill="#20B8F1" d="M81.632,105.888c-1.856-0.161-3.266-0.094-4.321,0.113c-0.264,0.052-0.506,0.112-0.727,0.181
						c-0.256,0.137-0.564,0.434-0.81,0.653c-0.51,0.477-0.934,0.977-1.286,1.491c0.787-0.22,1.602-0.395,2.413-0.535
						c0.408-0.063,0.812-0.125,1.208-0.187c0.2-0.026,0.397-0.052,0.594-0.078l0.293-0.036c0.088,0.008,0.17,0.026,0.254,0.039
						c1.34,0.221,2.556,0.444,3.411,0.535C84.372,108.246,84.645,107.891,81.632,105.888z"/>
					<path fill="#20B8F1" d="M202.895,176.809c-0.656-1.511-1.665-2.977-2.937-4.433C200.582,173.8,201.442,175.249,202.895,176.809
						z"/>
					<path fill="#20B8F1" d="M72.236,113.923c0.845,0.218,1.285,0.294,2.002,0.465c-0.316-0.196-0.616-0.386-0.877-0.563
						l-0.188-0.13l-0.088-0.063c-0.032-0.012-0.059-0.035-0.052-0.148c-0.009-0.35-0.002-0.7,0.024-1.05
						c0.105-1.399,0.522-2.798,1.431-4.106c-2.338,0.637-4.421,1.716-5.324,3.322c-0.056,0.1-0.108,0.202-0.155,0.306
						c-0.049,0.11-0.096,0.229-0.084,0.205c-0.005,0.026,0.01,0.06,0.046,0.101c0.071,0.082,0.228,0.194,0.48,0.34
						C69.958,112.891,70.852,113.321,72.236,113.923z"/>
					<path fill="#20B8F1" d="M151.098,131.874c-0.004-0.074-0.008-0.151-0.011-0.223
						C151.091,131.739,151.092,131.764,151.098,131.874z"/>
					<path fill="#20B8F1" d="M106.854,86.478c-0.102-0.779,0.48-1.528,0.976-2.287C107.104,84.14,106.617,84.765,106.854,86.478z"/>
					<path fill="#20B8F1" d="M89.248,84.386C89.253,83.564,88.62,83.658,89.248,84.386L89.248,84.386z"/>
					<path fill="#20B8F1" d="M115.559,106.553c0.627,0.754,1.46,1.677,2.873,3.096C116.973,108.152,116.072,107.173,115.559,106.553
						z"/>
					<path fill="#20B8F1" d="M122.598,134.765c-0.001,0.008-0.031,0.013-0.032,0.022
						C124.267,134.866,123.945,134.851,122.598,134.765z"/>
					<path fill="#20B8F1" d="M92.711,86.479c-0.917-0.583-1.735-1.017-2.381-1.248C90.903,85.609,91.67,86.024,92.711,86.479z"/>
					<path fill="#20B8F1" d="M89.676,83.718c0.425,0.123,0.691,0.157,0.967,0.21C89.661,82.865,88.959,82.283,89.676,83.718z"/>
					<path fill="#20B8F1" d="M89.005,85.33c0.139-0.349,0.664-0.316,1.325-0.098c-0.504-0.32-0.893-0.621-1.083-0.846
						C89.226,84.604,89.177,84.917,89.005,85.33z"/>
					<path fill="#20B8F1" d="M159.749,132.586c0.125-0.177,0.249-0.353,0.396-0.56c-0.432,0.622-0.714,1.029-0.878,1.264
						c-0.058,0.087-0.067,0.101-0.04,0.06C159.28,133.273,159.48,132.98,159.749,132.586z"/>
					<path fill="#20B8F1" d="M145.926,111.07c-0.035,0.152-0.06,0.263-0.093,0.409c-0.02,0.092-0.045,0.208-0.064,0.296
						L145.926,111.07z"/>
					<path fill="#20B8F1" d="M147.159,105.449c-0.43,2.106-0.77,3.772-1.057,5.18c-0.283,1.329-0.457,2.086-0.546,2.442
						c-0.178,0.712-0.035-0.173,0.213-1.295c0,0-1.33,6.113-2.661,12.226c-1.272,6.123-2.544,12.246-2.544,12.246
						s1.822-7.847,3.499-15.724c0.819-3.942,1.638-7.884,2.252-10.841C146.821,107.143,147.159,105.449,147.159,105.449z"/>
					<path fill="#20B8F1" d="M156.479,120.61l-0.832-0.661c0.99,0.801,1.766,1.364,0.952,0.754
						c-0.055-0.053-0.886-0.686-1.657-1.335c-0.76-0.685-1.45-1.278-1.493-1.343L153,117.58c0.126,0.126,0.15,0.151,0.273,0.275
						c-0.843-0.851-0.649-0.596-1.6-1.645c-0.297-0.31-0.487-0.53-0.296-0.316c0,0-0.155-0.175-0.311-0.351
						c-0.147-0.177-0.294-0.354-0.294-0.354c-0.155-0.186-0.126-0.157,0.041,0.05c0,0-0.19-0.228-0.38-0.455
						c-0.168-0.214-0.337-0.428-0.337-0.428l0.005,0.006c-0.024-0.032-0.054-0.072-0.086-0.116l-0.048-0.064l-0.021-0.026
						l-0.005-0.006l0.13,0.172l0.286,0.38c1.518,2.019,2.889,3.921,3.698,5.066c-2.349-3.112-1.679-2.341-3.705-5.057
						c0,0,0.972,1.325,1.911,2.678c0.943,1.35,1.853,2.727,1.853,2.727c-1.911-2.722-2.626-3.741-4.5-6.411
						c0.063,0.087,0.147,0.204,0.226,0.312c-0.161-0.223-0.167-0.232-0.236-0.327c-0.045-0.067-0.095-0.139-0.224-0.33l0.09,0.135
						c-0.053-0.073-0.172-0.27-0.099-0.15c-0.004-0.006-0.017-0.027-0.027-0.044c0.03,0.049,0.047,0.076,0.002,0.003
						c0.008,0.014,0.017,0.028,0.034,0.055c0.04,0.071,0.061,0.106,0.113,0.199l-0.007-0.013c0.089,0.169,0.104,0.199,0.167,0.318
						c0.134,0.265,0.196,0.389,0.276,0.547c0.106,0.233,0.028,0.061,0.154,0.336c0.337,0.718,0.545,1.224,1.02,2.48
						c0.249,0.72-0.043-0.127,0.047,0.132l0.23,0.668c0.063,0.178,0.042,0.12,0.032,0.091c0.065,0.192,0.092,0.267,0.13,0.378
						c0.104,0.324,0.205,0.64,0.339,1.056c0.419,1.313,0.772,2.463,1.001,3.305c1.027,3.37,1.121,3.839,0.794,2.876
						c-0.165-0.479-0.426-1.329-0.726-2.351c-0.251-0.889-0.525-1.866-0.812-2.88c0.098,0.349,0.194,0.738,0.28,1.132
						c0.477,2.271,0.945,4.51,1.412,6.742c-0.151-0.329-0.301-0.653-0.453-0.982c-0.274-0.595-0.552-1.197-0.864-1.875
						c-0.543-1.177,0.263,0.571,0.097,0.211c-1.789-3.251-1.436-4.753-1.645-6.044c-0.022-0.321-0.043-0.637-0.066-0.976
						c-0.005-0.083-0.009-0.168-0.014-0.255l-0.006-0.13l-0.003-0.066l0.033,0.127c0.097,0.401,0.2,0.824,0.31,1.274
						c0.491,1.83,0.803,4.276,1.268,7.778c0,0-0.422-2.061-0.783-4.128c-0.342-2.07-0.683-4.141-0.683-4.141
						c0.704,4.752,1.486,9.936,2.043,15.122c0.552,5.179,0.858,10.354,0.97,15.041c0.743,4.583,1.48,8.587,1.894,10.485
						c0,0-0.174,1.749-0.404,3.503c-0.248,1.75-0.496,3.5-0.496,3.5c-0.404-2.072-0.613-6.466-0.905-11.801
						c0.011,1.119,0.021,2.196,0.029,3.074c-0.955-4.662-1.251-12.047-1.696-19.182c0.386,2.591,0.778,5.224,1.164,7.814
						c-0.513-7.767-1.392-16.326-2.307-23.76c0.146,1.467,0.226,2.736,0.227,3.455c-0.191-2.102-0.386-3.977-0.537-5.247
						c-0.162-1.338,0.119,1.481,0.361,4.739c0,0-0.382-3.545-0.764-7.089c-0.361-3.547-0.723-7.094-0.723-7.094l0.515,5.64
						c0,0-0.337-2.214-0.587-4.429c-0.233-2.222-0.466-4.443-0.466-4.443c0.321,7.169,0.477,16.055,0.232,23.87
						c-0.225,7.83-0.865,14.583-1.86,17.521c0.594-10.456,0.321-17.078,0.562-29.469c0.025,6.556,0.296,5.163,0.495,2.466
						c0.221-2.692,0.312-6.718,0.532-5.384c-0.243-1.373-0.304-7.28-0.334-9.341c0,0-0.017,2.986-0.143,5.975
						c-0.123,2.979-0.349,5.961-0.349,5.961c0.086-10.138-0.083-7.595-0.121-11.786c-0.265,20.024-0.906,13.324-1.629,19.427
						c0.381-6.724,0.835-13.555,1.071-11.935c0.144-7.532-0.158-1.665-0.686,4.478c-0.488,6.146-1.196,12.561-0.985,6.158
						c0.131-0.159,0.125,0.877,0.416-2.529c-0.344,2.978-0.634,3.263-0.706,2.078c-0.081-1.183,0.078-3.828,0.429-6.738l0.102-0.128
						c-0.393-2.407-1.345-0.311-4.751,16.36c0.396-2.121,3.703-19.853,4.391-23.538c-0.001,0-2.559,14.071-5.991,27.982
						c-1.69,6.961-3.547,13.883-5.029,19.041c-1.479,5.164-2.546,8.587-2.546,8.587c1.834-7.072,4.483-19.138,7.184-30.375
						c2.25-9.306,3.769-15.586,6.215-25.699c0.103-0.461,0.211-0.947,0.328-1.469c0.041-0.178,0.084-0.362,0.129-0.554l0.038-0.157
						l-0.048,0.202c-0.069,0.276-0.144,0.577-0.229,0.92c-0.131,0.49-0.278,1.037-0.448,1.669
						c-0.527,2.093-1.692,6.721-2.808,11.155c-1.249,5.035-2.474,9.98-2.736,10.606c1.773-7.932,2.39-10.039,2.826-11.859
						c0.23-0.88,0.469-1.794,0.834-3.189c0.209-0.75,0.455-1.63,0.754-2.701c0.146-0.5,0.304-1.046,0.478-1.643
						c-0.042,0.134-0.088,0.28-0.138,0.439c0.024-0.077,0.046-0.147,0.072-0.229l0.011-0.034c-0.075,0.25-0.152,0.507-0.231,0.773
						c-0.164,0.548-0.337,1.128-0.521,1.742c-0.732,2.417-1.606,5.303-2.53,8.353c-1.771,5.765-3.555,11.023-3.603,10.614
						c0.975-3.037,5.296-16.501,6.484-20.203c0,0-0.06,0.199-0.15,0.498c-0.256,0.782-0.555,1.694-0.875,2.672
						c-0.427,1.247-0.882,2.576-1.337,3.906c-1.849,5.311-3.941,10.542-3.941,10.542c0.775-1.878,2.357-6.374,4.049-11.135
						c0.4-1.12,0.812-2.275,1.229-3.441l-0.077,0.2c-0.062,0.15-0.117,0.317-0.175,0.487c0.053-0.159-0.165,0.5-0.474,1.293
						c-0.299,0.79-0.728,1.727-0.89,2.107l0.549-1.262c-0.187,0.425-0.345,0.785-0.493,1.121c-0.121,0.294-0.23,0.561-0.339,0.826
						c-0.1,0.226-0.198,0.447-0.297,0.671c-0.365,0.778-0.732,1.559-1.1,2.344c-0.438,0.91-0.878,1.823-1.319,2.738
						c-3.577,7.378-7.703,14.773-8.011,13.925c1.21-1.987,4.7-8.227,8.006-14.307l0.621-1.135l0.239-0.438l-0.003,0.006
						l-0.021,0.039c-0.03,0.055-0.059,0.107-0.088,0.159c-0.133,0.229-0.257,0.441-0.424,0.729c-0.091,0.156-0.276,0.43-0.424,0.714
						c-0.514,0.842-1.052,1.723-1.609,2.635c-0.833,1.321-1.694,2.688-2.577,4.088c-1.778,2.767-3.667,5.596-5.607,8.366
						c-3.883,5.531-7.969,10.873-11.697,14.995c-3.721,4.14-7.077,7.127-9.188,8.281c0,0,0.911-1.378,1.821-2.756
						c0.93-1.363,1.861-2.726,1.861-2.726s-1.682,1.023-3.464,1.939c-1.772,0.926-3.639,1.74-3.639,1.74
						c3.355-2.789,7.596-6.402,12-10.618c4.407-4.196,8.961-9.057,13.157-14.073c2.098-2.506,4.105-5.051,5.973-7.564
						c0.461-0.629,0.919-1.256,1.375-1.878l0.123-0.181c0.069-0.107,0.134-0.211,0.233-0.339c0.36-0.486,0.667-0.952,0.904-1.341
						c-0.575,0.894-0.146,0.275-1.065,1.569c-0.12,0.193-0.055,0.063,0.155-0.22c0.213-0.284,0.485-0.682,0.614-0.88
						c0,0-0.132,0.194-0.33,0.486c-0.104,0.144-0.226,0.312-0.357,0.492c-0.104,0.156-0.216,0.323-0.328,0.49
						c-0.449,0.658-1.002,1.277-1.002,1.277c0.011-0.033-0.3,0.383-0.629,0.755c-0.338,0.383-0.736,0.742-0.696,0.706
						c0,0,0.559-0.508,1-1.063c0.183-0.251,0.533-0.623,0.728-0.875c0.203-0.261,0.337-0.435,0.337-0.435
						c0.039-0.059-0.245,0.355-0.798,0.977c-0.228,0.281-0.449,0.569-0.756,0.891l-0.397,0.408c-0.284,0.289-0.52,0.517-0.698,0.681
						c-0.355,0.329-0.435,0.4-0.223,0.194c0.126-0.117,0.258-0.238,0.434-0.4c0.074-0.074,0.147-0.148,0.174-0.175
						c-0.063,0.067-0.3,0.309-0.571,0.53c-0.138,0.107-0.272,0.212-0.379,0.295c-0.063,0.055-0.106,0.092-0.131,0.114
						c0,0,0.079-0.068,0.158-0.135c0.129-0.099,0.257-0.197,0.257-0.197c-0.088,0.067-0.165,0.126-0.243,0.186l-0.146,0.124
						c-0.09,0.075-0.182,0.146-0.282,0.217c-0.101,0.071-0.21,0.142-0.338,0.216c-0.061,0.039-0.125,0.08-0.216,0.138
						c-0.098,0.065-0.376,0.182-0.29,0.146c-0.005,0.001-0.014,0.004,0.036-0.017l0.039-0.017l0.013-0.006l0.005-0.002l-2.141,1.061
						c-13.62,6.794-26.815,13.391-32.313,15.274c0.37-0.387,3.086-3.354,6.863-6.056c3.725-2.762,8.629-5.125,12.237-6.292
						c2.866-0.937,6.075-1.689,9.393-2.49c1.587-0.391,3.267-0.805,5.036-1.241c0.333-0.086,0.668-0.172,1.007-0.26l-0.013,0.003
						l-0.026,0.007c-0.072,0.02-0.153,0.048-0.071,0.021c0.041-0.011,0.117-0.032,0.149-0.041c0.105-0.02-0.036,0.002,0.181-0.03
						c0.03-0.023,1.071-0.176,0.224-0.046c0.265-0.049,0.398-0.059,0.541-0.069c0.07-0.002,0.143-0.004,0.231-0.007
						c0.076,0.003,0.318-0.032,0.537-0.038c-0.076,0.003-0.06,0.002,0.019-0.001l0.069-0.003l0.021,0c-0.006,0,0.029,0-0.011,0
						l-0.323,0.006c-0.425,0.005-0.858,0.011-1.299,0.017c-1.738,0.017-3.496,0.008-5.216-0.037
						c-3.44-0.086-6.728-0.331-9.392-0.692c-2.675-0.363-4.682-0.811-5.622-1.181c3.449,0.336,7.968,0.503,10.026,0.647
						c0.346-0.316,0.993-0.534,1.764-0.662c0.79-0.13,1.728-0.181,2.607-0.194c0.775-0.001,1.54-0.002,2.348-0.003l0.225-0.006
						l0.027-0.001h0.001c-0.837-0.017,1.876,0.039-1.876-0.039l0.008,0.001l0.016,0.002l0.032,0.003l0.129,0.015l0.259,0.031
						c0.347,0.041,0.7,0.082,1.06,0.125c0.343,0.036,0.768,0.099,1.067,0.116c0.078-0.062,0.136-0.132,0.172-0.213
						c0.392,0.133,0.809,0.215,1.217,0.382c0.261,0.099,0.28,0.113,0.373,0.155c0.084,0.039,0.173,0.081,0.264,0.123
						c0.365,0.173,0.773,0.384,1.113,0.574c0.679,0.384,1.103,0.661,0.463,0.267c0.452,0.27,0.877,0.542,1.409,0.924
						c0.266,0.191,0.557,0.411,0.886,0.677c0.022,0.015,0.038,0.036,0.065,0.048c0.031,0.015,0.061,0.03,0.014,0.004l-0.146-0.082
						c-0.079-0.046-0.16-0.093-0.244-0.141c-0.139-0.083-0.229-0.143-0.259-0.171c0.693,0.366,1.267,0.669,1.741,0.92
						c0.509,0.277,0.907,0.494,1.224,0.666c0.157,0.086,0.161,0.088,0.06,0.033c-0.202-0.111-0.825-0.449-1.492-0.786
						c-0.327-0.173-0.689-0.326-0.965-0.493c-0.229-0.179-0.424-0.33-0.592-0.461c-0.279-0.202-0.242-0.19,0.415,0.319
						c0.032,0.019,0.111,0.102,0.272,0.205c0.214,0.105,0.45,0.221,0.718,0.353c0.587,0.294,1.37,0.702,2.22,1.184
						c0.212,0.122,0.429,0.247,0.649,0.373l0.331,0.195l0.167,0.099l-0.164-0.091c-0.486-0.274-0.965-0.546-1.434-0.838
						c-0.914-0.609-1.829-1.248-2.842-1.96c-5.179-3.249-5.883-3.268-4.608-2.321c0.629,0.477,1.735,1.197,2.968,1.916
						c0.319,0.182,0.633,0.362,0.942,0.539c0.155,0.095,0.319,0.176,0.498,0.229c0.072,0.023,0.206,0.078,0.228,0.075l-0.145-0.113
						c-0.384-0.296-0.753-0.557-1.088-0.78l0.052,0.034l0.014,0.009c-0.003,0,0.016,0.009-0.004,0l-0.181-0.082l-0.724-0.326
						c-0.478-0.216-0.959-0.435-1.445-0.655c-1.923-0.876-3.831-1.768-5.687-2.7c-3.721-1.858-7.188-3.932-10.338-5.983
						c-3.146-2.063-5.936-4.186-8.222-6.254c-2.312-1.998-4.141-3.913-5.371-5.604c-1.109-2.126,1.255-0.714,3.688,0.946
						c2.429,1.675,4.942,3.62,4.041,2.812c1.076-0.252,0.214-1.587-1.461-3.397c-1.675-1.821-4.158-4.165-6.393-6.356
						c-2.234-2.194-4.22-4.234-4.937-5.38c-0.715-1.152-0.133-1.46,2.702-0.112c4.512,2.978,8.562,6.489,12.308,9.755
						c3.737,3.282,7.157,6.363,10.179,8.792c1.229,1.712-0.317,0.909-2.244-0.151c-1.919-1.074-4.206-2.391-4.289-1.926
						c0,0,1.156,0.583,2.311,1.166c1.148,0.588,2.284,1.215,2.284,1.215c2.561,2.507,4.354,4.653,1.64,3.069
						c4.065,2.627,4.936,2.246,5.871,1.707c0.921-0.526,1.924-1.23,5.696,1.267c-2.47-2.643-4.805-5.6-8.11-8.402l0.71,1.445
						c-3.349-2.765-5.367-4.999-6.937-6.865c-1.577-1.858-2.719-3.33-4.489-4.397c-1.9-2.436-4.362-5.521-5.759-7.736
						c-1.402-2.211-1.729-3.542,0.513-2.298l8.749,8.601c-2.504-2.563-5.746-4.605-3.38-1.693c-1.721-2.122,1.586,0.455,3.897,2.143
						c2.324,1.68,3.657,2.46-1.625-3.585c0,0-1.632-1.38-3.264-2.759c-1.647-1.362-3.294-2.724-3.294-2.724
						c-1.77-2.58-4.626-6.479-6.529-9.538c-1.91-3.054-2.878-5.278-1.028-4.335c-4.292-4.29-4.136-3.958-4.178-3.801
						c-0.049,0.166-0.281,0.148-5.49-4.688c6.305,6.176,5.44,6.716,4.724,7.282c-0.733,0.58-1.281,1.181,5.647,7.361
						c-6.057-5.582-7.645-6.471-9.037-7.125c-1.404-0.644-2.606-1.06-8.172-5.393c2.917,2.8,5.898,5.03,3.508,4.626
						c0.803,0.869,1.781,2.021,2.35,2.697c-0.106-0.045-0.165-0.083-0.281-0.145c0.141,0.099,0.257,0.181,0.396,0.279
						c0.395,0.462,0.482,0.554,0.139,0.095c1.494,0.999,3.193,2.306,4.875,3.813c3.096,3.476,4.277,5.486,5.073,7.092
						c0.795,1.622,1.2,2.847,2.763,4.695c-1.884-0.794-3.221-3.35-6.661-5.987c0,0,1.162,1.392,2.323,2.783
						c1.174,1.378,2.349,2.756,2.349,2.756c-3.368-2.976-6.482-5.081-9.122-7.024c-2.633-1.949-4.786-3.743-6.07-6.268l-1.524,1.135
						c-4.504-2.517-7.219-2.355-4.911,0.8c-1.056-0.245,0.483,1.82,1.693,3.284c1.215,1.454,2.076,2.325-0.437-0.175
						c0,0,0.575,1.534,1.193,3.029c0.311,0.742,0.624,1.487,0.837,2.09c0.225,0.584,0.375,0.974,0.375,0.974l-1.849-1.276
						c-0.382,0.295-0.547,0.75-0.568,1.303c-0.024,0.56,0.119,1.17,0.256,1.962c0.296,1.543,0.928,3.13,1.105,4.619
						c0.057,0.813,0.023,1.561-0.191,2.209c-0.107,0.324-0.26,0.624-0.47,0.896c-0.105,0.136-0.224,0.265-0.359,0.387
						c-0.049,0.023-0.194,0.232-0.298,0.349l-0.353,0.407c-0.973,1.078-2.203,2.08-3.8,3.045c-0.399,0.241-0.821,0.48-1.268,0.719
						l-0.689,0.356l-0.358,0.178c-0.118,0.051-0.193-0.019-0.295-0.023c-0.765-0.16-1.636-0.357-2.627-0.596
						c0.483,0.302,0.971,0.607,1.478,0.925l0.336,0.224l0.157,0.109l0.038,0.027l0.005,0.003l0.001,0.001
						c0.231-0.738-2.007,6.424-1.059,3.394l0.002,0.003l0.008,0.014l0.015,0.028l0.061,0.113c0.158,0.302,0.291,0.602,0.386,0.9
						c0.382,1.197,0.172,2.34-1.38,3.566c0,0-1.938-0.225-3.875-0.45c-1.94-0.208-3.88-0.416-3.88-0.416
						c1.083,1.395-1.161,3.313-2.651,5.22c-0.746,0.95-1.303,1.901-1.171,2.72c0.066,0.41,0.304,0.783,0.776,1.109
						c0.477,0.359,1.187,0.658,2.191,0.881c-5.254,0.63-8.203,2.172-9.648,4.189c-0.723,1.006-1.07,2.123-1.147,3.284
						c-0.075,1.17,0.171,2.557,0.558,3.846c0.392,1.311,0.949,2.612,1.551,3.865c0.31,0.619,0.618,1.234,0.921,1.842
						c0.321,0.625,0.638,1.24,0.948,1.844c1.222,2.426,2.146,4.595,1.79,6.646l9.77-2.744c0.388,2.214,1.742,4.147,3.691,5.797
						c1.943,1.681,4.577,2.943,7.557,4.096l7.646-4.69c4.078-0.219,3.733,2.143,3.309,5.612c-0.209,1.753-0.503,3.577-0.413,5.267
						c0.045,0.844,0.182,1.643,0.453,2.338c0.266,0.687,0.69,1.311,1.216,1.651c-2.638,2.238-3.092,0.464-2.234-1.678
						c-1.309,2.318-1.852,4.195-1.951,5.515c-0.103,1.315,0.302,2.188,1.021,2.715c0.72,0.527,1.754,0.709,2.93,0.667
						c1.19-0.023,2.411-0.414,3.691-0.791c2.52-0.81,5.075-1.829,6.556-1.906c1.495-0.068,2.069,0.992,1.133,4.749
						c1.344-1.081,1.975-1.344,2.246-1.016c0.271,0.328,0.17,1.236-0.056,2.4c-0.093-0.029-0.252,0.072-0.455,0.284
						c0.042,0.146,0.171,0.239,0.325,0.302c-0.337,1.575-0.747,3.396-0.922,4.928c0.591-2.151,1.065-3.938,1.14-4.842
						c0.783,0.211,2.473-0.131,4.365-1.732c0,0-0.946,2.216-1.893,4.432c-0.932,2.223-1.864,4.444-1.864,4.444
						c0.144-0.072,0.207-0.021,0.369-0.128c-0.413,3.731,2.717-3.765,5.302-10.554c1.135-1.216,2.333-2.762,3.576-4.751
						c-1.412,3.628-1.813,5.22-1.731,5.8c0.074,0.573,0.606,0.117,1.131-0.306c1.061-0.842,1.99-1.603-0.478,6.334
						c0.883-1.826,1.74-2.985,2.61-3.955c0.851-0.985,1.705-1.791,2.627-2.869c1.848-2.159,3.908-5.429,6.537-13.529
						c-0.632,2.125-0.749,3.19-1.136,3.219c0.125,2.063,0.411,4.157,2.319-0.288l-2.854,11.917c0,0,0.377-0.964,0.942-2.409
						c0.541-1.456,1.262-3.397,1.983-5.339c1.416-3.891,2.728-7.81,2.728-7.81c-0.906,7.456-1.23,11.832-4.491,20.745
						c3.011-6.727,3.662-8.008,4.395-9.231c0.684-1.238,1.398-2.453,3.564-9.353l-1.492,7.779c0.373-0.09,1.281-2.704,1.965-4.488
						c0.69-1.784,1.168-2.735,0.872,0.529c-0.416,7.547,1.547,8.363,3.709,8.939c2.221,0.604,4.557,0.968,6.542,8.004
						c-0.171-11.657,0.226-9.04,0.767-5.769c0.54,3.272,1.326,7.197,1.361-1.836c0.238,5.509,0.908,8.623,0.217,13.418
						c1.131-2.716,2.016-0.561,2.853,0.377c0.808,0.941,1.61,0.62,1.959-7.024c0.592,5.514-0.055,8.102,0.362,11.354
						c0.147-1.2,0.503-4.83,0.967-1.561c0.471,3.259-0.068,4.642-0.355,7.063c1.325-0.532,1.796-5.075,1.67-11.442
						c-0.117-6.37-0.748-14.581-1.374-22.53c1.631,7.443,2.294,6.288,1.723-4.174c0.931,5.141,2.336,10.471,1.168,12.497
						c0.217,0.167,0.681,0.689,1.246,1.177c0.562,0.489,1.292,0.912,1.909,0.93c0.63,0.013,1.099-0.374,1.59-1.63
						c0.396-1.235,0.381-3.239-0.243-6.374c0.488,1.556,0.923,1.709,1.212,1.287c0.145-0.211,0.252-0.565,0.316-0.96
						c0.04-0.39-0.052-0.801-0.094-1.17c0.585,0.252,0.967,0.653,1.288,0.815l0.016,0.007l0.004,0.002l0.002,0.001l0,0l0.001,0.001
						c-0.061,0.014,0.135-0.032-0.135,0.032l0.013,0.002l0.052,0.007l0.104,0.01c0.068,0.004,0.137,0.003,0.206-0.003
						c0.138-0.012,0.276-0.047,0.422-0.109c0.291-0.127,0.608-0.369,0.985-0.782l-1.03-1.89c-1.603-7.551-1.571-8.447-0.947-7.75
						c0.613,0.707,1.809,2.973,2.159,1.893l0.44,1.52c1.568,2.419,2.413,3.258,2.792,3.357c0.382,0.096,0.338-0.546,0.302-1.138
						c-0.04-1.201-0.192-2.13,3.664,3.177l-3.729-8.834c-3.701-9.634-2.175-6.977,0.357-3.019c2.497,3.985,6.146,9.147,5.219,5.21
						c0,0-0.734-1.167-1.468-2.333c-0.722-1.173-1.443-2.346-1.443-2.346c-1.146-3.367,2.379,2.725,6.789,9.707
						c4.361,6.991,9.617,14.867,10.832,15.673c1.122,1.435,0.986,2.744,1.24,4.115c4.521,4.471,3.16,1.623,0.666-2.74
						c-2.48-4.378-5.92-10.359-5.705-12.183c1.886,2.821,3.947,6.608,5.771,9.734c1.827,3.124,3.447,5.572,4.576,5.631
						c1.813,2.108,0.181-3.311-1.13-7.92c-1.257-4.625-2.212-8.355,2.511-3.766c-3.49-3.924-6.803-7.964-8.309-11.72
						c0.041-1.182,3.795,2.196,6.604,3.928c2.78,1.762,4.587,1.971-0.199-4.79c1.081,0.95,2.033,1.934,2.888,2.912
						c-0.893-2.04-1.293-4.033-2.212-6.377c-0.916-2.369-2.369-5.051-5.285-8.44c11.972,11.497,10.77,6.932,8.658,2.776
						c-2.047-4.286-4.881-8.214,7.143,1.211c0,0,0.348-1.137,0.696-2.273c0.16-0.565,0.32-1.131,0.44-1.555
						c0.116-0.443,0.193-0.739,0.193-0.739l2.5,1.863c3.431-1.464-2.202-6.394-8.143-10.787c2.109,0.498,4.379,2.274,5.738,3.125
						c3.738-0.308,5.464-1.155,4.651-2.833c-0.819-1.643-4.105-4.534-10.657-8.708c0,0,2.355,0.775,4.712,1.55
						c2.363,0.756,4.726,1.513,4.726,1.513c-2.52-1.441,1.673-1.736,5.398-3.296c1.842-0.809,3.534-1.986,4.102-3.434
						c0.569-1.433-0.055-3.299-2.775-4.995c1.111,0.167,3.015,0.471,4.348,1.115c-2.676-2.022-2.329-3.768-0.831-5.733
						c1.522-1.915,4.043-4.178,5.761-6.451c3.408-4.475,3.149-9.163-14.646-5.707c0,0-2.418-0.45-4.809-0.688
						c-1.196-0.125-2.385-0.208-3.272-0.251c-0.886-0.045-1.485-0.042-1.485-0.042c-0.659,2.496-4.546,3.32-8.76,4.236
						c-4.242,0.871-8.811,2.035-11.552,3.341c-1.089-0.023,1.301-1.303,4.174-2.818c2.874-1.483,6.247-3.064,7.404-2.652
						l-1.605,0.856c4.464-1.498,7.004-2.61,8.438-3.635c1.438-1.017,1.78-1.902,1.925-2.739c0.283-1.661-0.261-3,5.438-5.946
						c-1.31-2.087-2.068-4.079-2.649-6.486c-0.277-1.112-0.502-2.268-0.721-3.48l-0.324-1.844c-0.156-0.663-0.37-1.378-0.566-2.074
						c-0.407-1.403-0.86-2.825-1.384-4.229l-0.2-0.525c-0.05-0.103-0.046-0.153-0.03-0.191l0.024-0.136l0.091-0.535
						c0.058-0.353,0.106-0.696,0.145-1.026s0.065-0.648,0.077-0.95l0.007-0.438l-0.006-0.209l-0.001-0.025l-0.001-0.013v-0.006
						c-2.77-2.452-0.77-0.683-1.389-1.232l-0.004-0.006l-0.062-0.097l-0.125-0.192c-0.656-1.005-1.465-1.975-2.275-2.706
						c0,0-2.015,3.061-4.029,6.121c-2.022,3.059-4.1,6.078-4.1,6.078l-1.381-2.06c1.478-3.126,5.771-9.944,7.055-8.28
						c2.02-3.656,0.25-2.786-2.092-0.551c-2.316,2.265-5.234,5.861-6.121,7.182c0.366-3.295,2.793-6.8,5.282-9.444
						c2.463-2.659,4.942-4.461,4.544-4.934l-1.931,0.051l-0.621,1.633c-4.275,4.356-7.572,9.777-8.748,8.242
						c0.466-3.12,3.943-8.14,3.808-8.868c0.511-0.9,0.599-1.41-0.445-0.723l-1.915-2.418c0,0-1.07,2.695-2.14,5.389
						c-1.104,2.679-2.206,5.358-2.206,5.358c-3.555,4.579-1.653-1.503-6.615,10.642c3.935-9.32,2.64-11.962,0.795-12.805
						c-1.873-0.88-4.223,0.057-3.609-3.054c-4.138,7.467-5.122,6.981-6.365,5.549c-0.297,2.424-3.928,14.887-4.509,13.056
						c3.929-12.813,4.16-15.769,3.812-17.903c-0.339-2.14-1.137-3.388,0.395-12.928c-0.893,6.359-2.194,6.852-3.497,8.065
						c-1.353,1.212-2.58,3.146-3.563,12.204c-0.328-1.171,0.113-3.639,0.7-6.606c0.579-2.969,1.324-6.433,1.391-9.633
						c-2.565,4.813-3.854,2.889-5.604,0.131c-1.665-2.758-3.855-6.346-6.449-4.648c-0.117,3.514,0.43,8.911-0.571,14.121
						c0,0-0.118-1.103-0.295-2.756c-0.183-1.654-0.45-3.858-0.776-6.051c-0.629-4.393-1.45-8.775-1.45-8.775
						c-0.531,0.875-0.634,5.956-0.832,9.296c-0.221,3.341-0.438,4.932-1.725-1.095c0.457,2.935,1.024,7.37,0.495,8.531
						c-1.246-2.058-2.512-3.37-3.923-4.032c-0.689-0.34-1.377-0.538-2.053-0.624c-0.67-0.089-1.416-0.014-2.098,0.121
						c-0.695,0.143-1.366,0.367-2.031,0.658c-0.704,0.317-1.389,0.695-2.056,1.104c-1.295,0.786-2.68,1.835-4.001,2.775
						c-0.647,0.455-1.35,0.951-2.066,1.41c-0.713,0.455-1.437,0.869-2.191,1.222c-1.567,0.791-3.256,1.316-5.332,1.598
						c-2.096,0.333-4.534,0.247-7.648,0.023c-1.556-0.129-3.278-0.334-5.203-0.608c-1.915-0.255-4.028-0.557-6.394-0.911
						c3.478,1.205,4.956,2.379,5.515,3.326c0.55,0.961,0.148,1.759-0.351,2.547c1.017,0.063,2.654,1.494,4.534,3.24
						c1.876,1.752,4.016,3.8,5.898,5.264c0,0-3.436-1.114-7.039-1.736c-3.602-0.674-7.415-0.86-7.415-0.86
						c5.169,4.222,4.335,6.112,3.563,8.084c-0.192,0.487-0.379,0.971-0.459,1.464c0.042,0.225,0.231,0.352,0.571,0.612
						c0.695,0.487,2.121,1.228,5.022,2.485l-1.881-1.404c6.762,3.203,14.479,6.188,22.825,9.186
						c4.153,1.553,8.321,3.409,12.45,5.533c0.522,0.271,1.039,0.539,1.549,0.804l0.697,0.37l-0.018,0.003l-0.058,0.009
						c-0.03,0.004-0.044,0.006-0.032,0.004c-0.087,0.012-0.182,0.021-0.284,0.025c-0.098,0.004-0.241,0.009-0.247-0.02
						c-0.076-0.042-0.164-0.098-0.262-0.171l-0.12-0.097c-0.002,0-0.006-0.002-0.013-0.007l-0.029-0.023l-0.016-0.016l0.053,0.052
						c0.06,0.059-0.051-0.051-0.019-0.019c0.04,0.042,0.071,0.076,0.109,0.116c0.057,0.07,0.123,0.152,0.214,0.263l-0.031-0.039
						c0.209,0.259,0.256,0.377,0.506,0.741c0.096,0.152,0.178,0.299,0.251,0.442l0.11,0.223l0.162,0.296
						c0.367,0.759,0.761,1.648,1.294,3.433l-0.083-0.268c0.24,0.78,0.264,0.943,0.348,1.305c0.089,0.444-0.008-0.098-0.157-0.655
						c-0.147-0.556-0.35-1.124-0.211-0.716c0.083,0.258,0.229,0.732,0.354,1.304c0.047,0.265,0.158,0.644,0.241,1.012
						c0.085,0.371,0.161,0.754,0.223,1.133c0.028,0.189,0.056,0.378,0.083,0.564c0.038,0.207,0.075,0.41,0.111,0.609
						c0.067,0.396,0.118,0.771,0.157,1.104c0.07,0.66,0.107,1.182,0.146,1.434c0.156,1.619-0.033-0.472,0.103,1.143l0.025,0.425
						l0.017,0.406c0.035,0.792,0.058,1.313,0.073,1.677c-0.013-0.271-0.037-0.764-0.051-1.05c0.05,0.72,0.08,1.727,0.059,2.604
						c-0.01,0.896-0.018,1.652-0.021,1.922c0,0,0.008-0.408,0.015-0.815c-0.001-0.409-0.002-0.818-0.002-0.818
						c0.023,1.166-0.037,2.382-0.114,3.612c-0.035,1.227-0.214,2.502-0.31,3.677c-0.124,1.193-0.314,2.367-0.454,3.379
						c0.064-0.4,0.2-1.184,0.38-2.096c0.273-1.207,0.542-2.392,0.807-3.559l0.828-4.396c1.061-4.011,1.005-2.768,0.71-0.998
						c-0.264,1.779-0.766,4.038,0.003,2.276l-0.296,1.023c1.251-4.269,2.094-6.383,2.167-5.824c-0.838,2.479-1.459,4.951-2.162,7.47
						c-0.693,2.522-1.473,5.09-2.352,7.848c1.413-4.208,2.067-5.839,2.945-8.396c0.914-2.55,2.031-6.052,5.083-13.787l-2.327,7.037
						c2.446-6.259,3.683-9.559,4.962-11.134c-1.387,2.879-2.278,5.562-3.327,8.459c-1.034,2.903-2.238,6.015-3.863,9.901
						c-1.315,3.835-1.649,4.779-1.438,4.436c0.21-0.349,0.974-1.998,1.676-3.418c1.353-2.846,2.544-4.741-2.495,5.988
						c9.085-18.413,4.357-10.532,6.333-14.462c1.278-3.105,2.883-6.587,4.197-8.998c1.301-2.415,2.312-3.767,2.057-2.744
						c0.096,0.305-2.616,6.29-5.417,12.108c-1.398,2.91-2.808,5.781-3.904,7.89c-0.416,0.793-0.85,1.618-1.318,2.509l-0.112,0.208
						c-0.03,0.058-0.09,0.167-0.035,0.067c0.057-0.104,0.115-0.208,0.176-0.315c0.122-0.215,0.25-0.439,0.384-0.674
						c-0.207,0.364-0.234,0.412-0.44,0.773c0.455-0.804,0.836-1.478,1.277-2.256c0.474-0.83,0.995-1.692,1.614-2.653
						c0.352-0.596,0.775-1.279,1.147-1.852c0.569-0.851,0.809-1.208,1.972-2.947c0,0-0.548,0.741-1.051,1.502
						c-0.488,0.763-1.021,1.522-1.021,1.522c1.128-1.75,4.133-6.536,6.522-9.79c1.186-1.633,2.195-2.892,2.591-3.263
						c0.401-0.372,0.228,0.152-1.025,2.01c-0.724,0.943-1.87,2.435-3.163,4.118c-0.485,0.654-0.992,1.337-1.483,2
						c-0.396,0.554-0.78,1.09-1.121,1.566c0.805-1.174,1.649-2.198,2.531-3.413c-0.279,0.378-0.467,0.632-0.733,0.993
						c-0.41,0.53-0.955,1.227-1.513,2.015c-1.113,1.623-2.337,3.373-3.12,4.657c0.376-0.617,1.152-1.812,1.768-2.676
						c0.604-0.896,1.013-1.508,0.566-0.843c0.629-0.955,1.465-2.082,2.448-3.361c0.474-0.654,1-1.336,1.579-2.034
						c0.29-0.349,0.593-0.702,0.909-1.057l0.015-0.017c6.903-6.364-9.401,8.667-7.722,7.119l0.002,0l0.003-0.001l0.006-0.002
						l0.024-0.008l0.048-0.018l0.098-0.035c0.063-0.023,0.129-0.047,0.196-0.071c0.125-0.045,0.257-0.093,0.397-0.144l-0.142,0.051
						c0.348-0.125,1.083-0.39,1.666-0.601l-1.131,0.408c0.98-0.354,1.686-0.608,2.53-0.913l0.31-0.112
						c0.094-0.042,0.238-0.055,0.241-0.151c0.071-0.157,0.141-0.311,0.21-0.462c0.146-0.306,0.307-0.608,0.479-0.908
						c-0.699,1.266-0.699,1.435-0.697,1.387c0.011-0.026,0.023-0.055,0.036-0.083c-0.032-0.011,0.063,0.146-0.357,0.248
						c0.067-0.024,0.133-0.048,0.197-0.071l0.095-0.034c0.016-0.021,0.021-0.046,0.033-0.069c0.041-0.093,0.08-0.18,0.117-0.264
						c0.081-0.168,0.153-0.318,0.219-0.455c0.139-0.273,0.26-0.491,0.366-0.674c0.214-0.365,0.364-0.593,0.525-0.831
						c0.354-0.544,0.646-0.862,1.982-1.833c-0.382,0.249-1.31,1.016-0.778,0.583c0.24-0.193,0.529-0.411,0.806-0.603
						c0.137-0.092,0.269-0.181,0.392-0.264c0.081-0.062,0.154-0.119,0.22-0.169c1.412-0.971-0.225,0.144,0.379-0.268
						c0.244-0.164,0.428-0.276,0.636-0.396c0.103-0.057,0.22-0.122,0.344-0.189c0.1-0.061,0.202-0.123,0.314-0.191l0.004-0.002
						c0.644-0.36,0.771-0.381,0.841-0.42c0.122-0.055,0.153-0.069,0.536-0.241c0,0-0.089,0.038-0.179,0.076
						c-0.084,0.041-0.169,0.081-0.169,0.081c-0.009-0.004,0.426-0.194,0.435-0.189l-0.095,0.037
						c0.584-0.204,0.514-0.191,0.842-0.275c-0.095,0.02,0.132-0.026,0.118-0.027c0.044-0.007-0.004,0,0.078-0.013
						c-0.03,0.003-0.063,0.008-0.091,0.016l-0.014,0.004c-0.004-0.008,0.184-0.029,0.009-0.009c0.028-0.003,0.062-0.007,0.083-0.01
						c0,0-0.084,0.012-0.145,0.013c-0.027,0-0.055,0-0.075-0.001c-0.057,0.002-0.095,0.004-0.095,0.004
						c-0.105,0.002-0.022,0.002,0.063-0.002c-0.14,0.006-0.235,0.008-0.413-0.005c0.049,0.001,0.026,0.009,0.303,0.009
						c-0.017,0.015-0.563-0.03-0.679-0.038c-0.068,0-0.471-0.058-0.354-0.042c-0.186-0.042-0.657-0.096-1.075-0.203l-0.312-0.086
						l-0.401-0.1c-0.273-0.072-0.538-0.155-0.785-0.246c-0.067-0.019-0.118-0.056-0.394-0.14c-0.59-0.187-1.037-0.4-1.611-0.651
						c-0.627-0.251-1.134-0.552-1.878-0.932c0,0-0.204-0.111-0.408-0.222c-0.198-0.115-0.396-0.231-0.396-0.231
						c-0.393-0.243-0.087-0.054-0.741-0.458c-1.321-0.825-0.491-0.309-0.948-0.604c-0.324-0.229-0.776-0.547-1.238-0.872
						c-0.501-0.352-1.01-0.796-1.563-1.217C155.861,120.111,156.145,120.338,156.479,120.61z M149.346,113.309
						c0.023,0.037,0.058,0.09,0.088,0.138C149.383,113.368,149.381,113.364,149.346,113.309z M151.018,130.988
						c-0.123-3.195,0.104-1.628,0.607,1.995C151.558,133.783,151.354,133.438,151.018,130.988z M90.645,94.597
						c0.121,0.125,0.207,0.214,0.328,0.339C87.417,93.338,88.796,93.999,90.645,94.597z M95.131,95.805
						c-0.886-1.035-1.898-1.91-2.968-2.732c1.742,1.716,1.582,2.153,0.731,2.092C94.91,96.7,96.379,97.658,95.131,95.805z
						 M190.695,75.618l-0.863,2.401C187.674,80.008,189.111,77.936,190.695,75.618z"/>
					<path fill="#20B8F1" d="M150.671,117.76c0.239,1.949,0.428,3.499,0.637,5.206C151.151,121.352,150.917,119.492,150.671,117.76z
						"/>
					<polygon fill="#20B8F1" points="164.644,125.147 164.676,125.159 164.709,125.171 					"/>
					<path fill="#20B8F1" d="M132.609,136.2c-0.067,0.019-0.109,0.03-0.145,0.04C132.495,136.231,132.518,136.225,132.609,136.2z"/>
					<path fill="#20B8F1" d="M90.596,76.887l0.795,2.721c0.119-0.782,1.742,0.584,3.02,1.482
						C92.838,79.472,90.405,77.287,90.596,76.887z"/>
					<path fill="#20B8F1" d="M136.232,116.279c-0.648-0.993,0.091-0.23-0.566-1.241l-2.769-3.525
						C132.692,112.042,134.7,115.057,136.232,116.279z"/>
					<path fill="#20B8F1" d="M113.33,99.522c5.589,5.885,4.12,3.494,3.603,1.928c-0.009,0.048,0.009,0.125-0.086,0.079
						C109.385,92.962,111.316,96.29,113.33,99.522z"/>
					<path fill="#20B8F1" d="M116.862,101.144c-0.106-0.421-0.089-0.721,0.322-0.561
						C114.225,97.127,116.354,100.043,116.862,101.144z"/>
					<path fill="#20B8F1" d="M92.778,90.369c1.817,1.112-7.444-7.227-4.849-5.171c-3.614-3.701-1.852-1.004,0.582,1.873
						C90.947,89.946,94.021,93.03,92.778,90.369z"/>
					<polygon fill="#20B8F1" points="131.838,118.827 124.907,111.589 130.181,117.71 					"/>
					<path fill="#20B8F1" d="M123.775,116.421l2.581,1.326c-1.203-1.172-1.827-1.944-2.264-2.574
						C123.482,115.322,121.625,114.374,123.775,116.421z"/>
					<path fill="#20B8F1" d="M124.093,115.173c0.335-0.066,0.377-0.397-0.66-1.681C123.397,113.679,123.385,114.146,124.093,115.173
						z"/>
					<polygon fill="#20B8F1" points="133.123,121.736 131.52,120.38 130.618,120.236 					"/>
					<path fill="#20B8F1" d="M115.964,122.893c0,0,0.447,0.633,0.894,1.267c0.461,0.614,0.922,1.227,0.922,1.227
						c2.879,1.878,4.797,2.774,3.823,1.758C119.705,125.67,118.821,124.587,115.964,122.893z"/>
					<path fill="#20B8F1" d="M139.57,137.052c-1.724-1.169-3.506-2.52-6.189-4.444l9.881,7.528c0,0-0.927-0.766-1.853-1.532
						C140.489,137.828,139.57,137.052,139.57,137.052z"/>
					<path fill="#20B8F1" d="M141.256,139.651c0.454,0.306,1.379,0.929,2.481,1.671c0.44,0.288,0.907,0.593,1.354,0.885
						c0.187,0.12,0.37,0.237,0.543,0.348c-0.115-0.075-0.224-0.146-0.324-0.211c-0.799-0.496-0.856-0.588,1.71,1.14
						c0.08,0.056,0.178,0.123,0.3,0.208l0.112,0.078l0.03,0.021l-0.054-0.035l-0.127-0.083c-0.161-0.105-0.33-0.215-0.503-0.329
						c-0.646-0.454-1.355-0.95-1.887-1.323C143.671,141.158,142.509,140.335,141.256,139.651z"/>
					<path fill="#20B8F1" d="M126.94,138.338l-0.19-0.052l-19.149,6.947c0,0,4.866-1.638,9.7-3.366
						C122.137,140.147,126.94,138.338,126.94,138.338z"/>
					<path fill="#20B8F1" d="M140.876,125.232c-0.833,1.644-0.339,0.669-1.11,2.191c-0.216,0.435,0.7-1.363,0.47-0.92
						C140.812,125.353,141.167,124.65,140.876,125.232z"/>
					<path fill="#20B8F1" d="M140.236,126.502c-0.087,0.174-0.181,0.361-0.285,0.571
						C140.104,126.766,140.181,126.613,140.236,126.502z"/>
					<path fill="#20B8F1" d="M91.25,91.39c0,0-0.352,0.13-0.879,0.326c-0.264,0.102-0.572,0.222-0.901,0.35
						c-0.161,0.057-0.343,0.153-0.5,0.185l-0.389-0.096c-1.043-0.257-2.086-0.514-2.086-0.514s1.621,0.56,3.241,1.119
						c0.811,0.28,1.621,0.56,2.229,0.77c0.582,0.268,1.084,0.188,1.075,0.209c0,0-0.453-0.58-0.905-1.16
						C91.691,91.984,91.25,91.39,91.25,91.39z"/>
					<path fill="#20B8F1" d="M104.137,99.623l-12.043-4.839l10.699,4.87C102.317,99.296,101.389,98.602,104.137,99.623z"/>
					<path fill="#20B8F1" d="M149.409,113.418l0.008,0.014c-0.011-0.02-0.018-0.031-0.035-0.062L149.409,113.418z"/>
					<polygon fill="#20B8F1" points="151.91,116.474 151.805,116.355 152.005,116.576 					"/>
					<path fill="#20B8F1" d="M158.94,122.338c-0.345-0.213-0.734-0.476-1.055-0.71C158.583,122.133,159.037,122.394,158.94,122.338z
						"/>
				</g>
			</g>
		</g>
	</g>
</g>
<g>
	<g>
		<g>
			<g>
				<g>
					<path fill="#20B8F1" d="M196.865,150.263c0.834,0.609-0.658-7.637-0.764-9.143
						C195.009,143.171,197.266,152.406,196.865,150.263z"/>
					<path fill="#20B8F1" d="M194.104,170.294l-0.688-3.354c0,0,0.296,2.09,0.593,4.179c0.312,2.089,0.623,4.179,0.623,4.179
						L194.104,170.294z"/>
					<path fill="#20B8F1" d="M189.56,171.555c2.144,6.813,2.342,6.125,2.326,4.308c-0.022-1.811-0.24-4.76,0.783-2.423l0.93,3.113
						l-2.443-11.256C190.523,167.376,191.284,175.161,189.56,171.555z"/>
					<path fill="#20B8F1" d="M178.132,142.831c1.82,5.261,0.751,4.82,1.214,1.415c-0.242-0.557-0.364-0.888-0.534-1.305
						C178.711,143.061,178.538,143.108,178.132,142.831z"/>
					<path fill="#20B8F1" d="M178.812,142.941C179.305,142.343,177.063,138.601,178.812,142.941L178.812,142.941z"/>
					<path fill="#20B8F1" d="M177.03,147.01l-0.74-5.036c-1.161-3.075-2.128-3.507-2.591-5.883
						C173.685,139.015,174.914,142.046,177.03,147.01z"/>
					<path fill="#20B8F1" d="M179.596,157.226l-0.292-2.151C178.81,153.787,178.554,153.374,179.596,157.226z"/>
					<path fill="#20B8F1" d="M178.734,150.524l0.569,4.55c0.827,2.153,2.266,6.567-0.136-1.676
						C180.415,157.458,179.303,153.521,178.734,150.524z"/>
					<path fill="#20B8F1" d="M179.857,152.429c1.358,2.81,2.418,4.491,3.214,9.487C183.771,159.535,180.696,149.967,179.857,152.429
						z"/>
					<path fill="#20B8F1" d="M193.361,185.869l1.52,3.888l-0.938-4.745C194.411,187.364,192.123,181.564,193.361,185.869z"/>
					<path fill="#20B8F1" d="M169.748,142.042c1.008,2.884,3.064,7.517,4.452,11.161l-0.651-3.537
						C172.559,147.822,171.354,146.27,169.748,142.042z"/>
					<path fill="#20B8F1" d="M174.2,153.203l1.033,5.279C176.125,158.742,175.396,156.344,174.2,153.203z"/>
					<path fill="#20B8F1" d="M184.491,172.368c0,0-0.577-2.731-1.154-5.463c-0.546-2.736-1.092-5.473-1.092-5.473
						s0.501,2.795,1.003,5.59c0.538,2.789,1.077,5.578,1.077,5.578L184.491,172.368z"/>
					<path fill="#20B8F1" d="M166.286,143.235l-2.097-6.817c0,0,0.756,2.592,1.512,5.184c0.773,2.586,1.547,5.173,1.547,5.173
						L166.286,143.235z"/>
					<path fill="#20B8F1" d="M164.588,145.469c-1.884-5.597-4.343-8.894-5.338-12.423c-0.246,1.283,1.199,6.212,2.549,10.605
						C161.274,141.076,162.076,141.376,164.588,145.469z"/>
					<path fill="#20B8F1" d="M163.702,150.105c-0.34-1.414-1.11-3.853-1.903-6.454C162.084,145.034,162.613,146.955,163.702,150.105
						z"/>
					<path fill="#20B8F1" d="M173.396,157.693c-0.724-1.692-2.578-6.143-3.784-7.82l3.438,7.85
						C173.158,157.725,173.275,157.709,173.396,157.693z"/>
					<path fill="#20B8F1" d="M173.158,157.975l-0.109-0.251c-0.395-0.012-0.693-0.081-0.826-0.124
						C172.335,157.632,172.614,157.732,173.158,157.975z"/>
					<path fill="#20B8F1" d="M173.485,157.693c-0.035-0.005-0.063-0.013-0.09,0C173.729,158.467,173.848,158.725,173.485,157.693z"
						/>
					<path fill="#20B8F1" d="M180.159,165.829c1.148,4.721,2.153,9.922,5.36,16.457
						C183.819,176.626,181.953,172.914,180.159,165.829z"/>
					<path fill="#20B8F1" d="M177.685,167.543l1.433,1.477c-0.805-2.118-2.105-5.147-2.725-7.484L177.685,167.543z"/>
					<polygon fill="#20B8F1" points="178.306,170.273 177.685,167.543 177.15,167.004 					"/>
					<path fill="#20B8F1" d="M168.338,156.711c1.121,3.642,0.885,4.137,0.709,4.923c1.124,1.299,1.93,1.885,2.35,1.624
						C170.399,160.733,168.717,156.154,168.338,156.711z"/>
					<path fill="#20B8F1" d="M170.979,157.996c0.035,0.162,0.074,0.341,0.108,0.495C171.41,159.14,171.537,159.338,170.979,157.996z
						"/>
					<path fill="#20B8F1" d="M165.042,164.029c0.233,0.432,0.499,0.92,0.745,1.373c-0.215-0.457-0.419-0.894-0.635-1.354
						L165.042,164.029z"/>
					<path fill="#20B8F1" d="M172.093,164.693c0.969,1.352,0.346-0.69-0.479-3.246c0.081,0.935,0.032,1.589-0.218,1.811
						C171.845,164.396,172.154,165.142,172.093,164.693z"/>
					<path fill="#20B8F1" d="M164.116,154.489c0.929,1.535,1.76,2.808,2.545,3.969C165.38,156.067,163.256,152.403,164.116,154.489z
						"/>
					<path fill="#20B8F1" d="M170.069,156.352c-0.034-0.136-0.078-0.29-0.092-0.382C169.16,154.32,169.518,155.149,170.069,156.352z
						"/>
					<path fill="#20B8F1" d="M170.069,156.352c0.289,1.241,0.958,3.278,1.545,5.096c-0.056-0.736-0.216-1.693-0.526-2.956
						C170.814,157.95,170.422,157.117,170.069,156.352z"/>
					<path fill="#20B8F1" d="M188.482,214.219c-1.69-3.43-3.173-6.76-3.816-8.588c-0.617-1.767-0.231-1.685,1.809,1.968
						c-2.166-5.709-13.621-29.354-20.688-42.196c1.507,3.16,2.883,6.078,4.33,10.789c2.185,3.747,5.796,8.237,8.444,15.13
						c1.111,4.258-1.793-2.104-4.042-5.627c2.368,4.362,3.741,7.806,5.42,11.768c0.835,1.979,1.753,4.099,2.885,6.53
						c0.565,1.216,1.186,2.511,1.876,3.907c0.675,1.367,1.376,2.75,2.182,4.297c0,0-0.447-1.203-0.894-2.406
						c-0.439-1.219-0.88-2.437-0.88-2.437C186.104,209.342,187.475,212.548,188.482,214.219z"/>
					<path fill="#20B8F1" d="M167.521,165.251l-0.12-1.094c-0.931-1.043-2.52-3.785-5.703-9.143c1.133,3.868,2.33,6.608,3.454,9.034
						l1.968,0.055L167.521,165.251z"/>
					<path fill="#20B8F1" d="M168.766,163.296c3.293,8.09,4.204,11.857,8.477,20.179c0.479-1.026-2.461-6.966-3.497-10.712
						c-0.461,2.793-1.56-4.678-4.563-8.565c-0.319-1.521-0.24-2.089-0.136-2.563c-0.693-0.813-1.482-1.857-2.386-3.176
						c0.097,0.18,0.167,0.311,0.256,0.475l-0.005-0.031c0.023,0.054,0.031,0.073,0.055,0.127c0.507,0.95,0.796,1.541,0.467,1.008
						c0.039,0.103,0.037,0.149,0.041,0.181c0.483,1.112,0.886,2.091,1.271,3.034c-1.157-1.382-0.992-2.018-1.271-3.034
						c-0.166-0.388-0.333-0.779-0.508-1.188c-0.02-0.039-0.034-0.066-0.05-0.096c0,0,0.112,1.308,0.226,2.616
						c0.13,1.304,0.259,2.608,0.259,2.608C168.217,165.067,168.488,164.616,168.766,163.296z"/>
					<path fill="#20B8F1" d="M191.261,200.097c-0.292-0.702-0.504-1.283-0.722-1.871
						C190.839,199.256,191.066,199.95,191.261,200.097z"/>
					<path fill="#20B8F1" d="M189.038,195.419c-0.348-1.172-1.483-4.455-0.916-3.756c1.113,2.323,1.424,3.898,2.417,6.563
						c-0.66-2.23-1.587-6.123-3.524-9.813l0.325,1.147c-1.445-2.563-5.923-12.338-6.269-13.489
						C183.989,183.28,186.087,188.409,189.038,195.419z"/>
					<path fill="#20B8F1" d="M180.239,181.15c0,0,0.154,1.13,0.309,2.26c0.168,1.128,0.335,2.255,0.335,2.255l3.38,6.64
						l-1.759-4.152C183.711,189.47,181.483,184.402,180.239,181.15z"/>
					<path fill="#20B8F1" d="M163.013,160.219l-3.847-8.396c0,0,1.234,3.044,2.469,6.089c1.255,3.037,2.51,6.074,2.51,6.074
						L163.013,160.219z"/>
					<polygon fill="#20B8F1" points="161.928,162.271 158.375,155.061 160.135,159.674 					"/>
					<path fill="#20B8F1" d="M218.573,250.151l-0.02,1.731C218.563,251.1,218.568,250.578,218.573,250.151z"/>
					<path fill="#20B8F1" d="M218.535,251.304l0.02-3.049C218.543,249.991,218.541,250.323,218.535,251.304z"/>
					<path fill="#20B8F1" d="M160.097,173.898c-2.119-4.259-4.859-9.718-6.343-12.877c-1.468-3.166-1.709-3.997,1.101,1.063
						l5.365,9.896C158.805,170.447,159.146,171.69,160.097,173.898z"/>
					<path fill="#20B8F1" d="M211.303,227.568c0.051,0.547,0.105,1.124,0.16,1.694c-0.181-0.894-0.354-1.758-0.522-2.591
						c-0.341-1.898-0.669-3.727-0.984-5.48c0.25,1.239,0.515,2.548,0.789,3.907c0.066,0.334,0.134,0.671,0.201,1.012l0.05,0.255
						l0.031,0.128l0.055,0.212C211.154,226.989,211.228,227.277,211.303,227.568z"/>
					<path fill="#20B8F1" d="M214.798,249.79l-0.267-3.647C214.646,247.405,214.732,248.618,214.798,249.79z"/>
					<path fill="#20B8F1" d="M217.882,254.969l0.195,8.282c0,0,0.005-0.256-0.004-0.713c-0.019-0.785-0.03-1.282-0.044-1.891
						C217.988,259.067,217.936,257.04,217.882,254.969z"/>
					<path fill="#20B8F1" d="M152.199,176.401c-2.173-2.764-3.143-3.857-3.444-4.098
						C151.893,176.534,156.526,182.907,152.199,176.401z"/>
					<path fill="#20B8F1" d="M219.271,156.484c-0.016,3.204-0.023,4.759-0.031,6.497
						C219.255,159.868,219.262,158.408,219.271,156.484z"/>
					<path fill="#20B8F1" d="M148.543,172.912c0.464,0.627,0.847,1.144,1.292,1.744c-0.845-1.466-1.499-2.667-1.08-2.353
						C146.422,169.16,144.849,167.309,148.543,172.912z"/>
					<path fill="#20B8F1" d="M206.874,247.659c-0.152-0.328-0.299-0.644-0.451-0.971
						C206.909,247.816,206.941,247.861,206.874,247.659z"/>
					<path fill="#20B8F1" d="M159.836,174.302c-0.191-0.605-0.033-0.796,0.056-1.075
						C159.501,172.763,159.402,172.957,159.836,174.302z"/>
					<path fill="#20B8F1" d="M154.146,163.445C154.155,162.691,153.701,162.556,154.146,163.445L154.146,163.445z"/>
					<path fill="#20B8F1" d="M172.751,192.824c0.442,0.916,1.035,2.059,2.033,3.848
						C173.752,194.791,173.113,193.576,172.751,192.824z"/>
					<path fill="#20B8F1" d="M183.005,223.51c0.004,0.006-0.007-0.009-0.002-0.002C183.756,224.584,183.613,224.379,183.005,223.51z
						"/>
					<path fill="#20B8F1" d="M156.609,166.576c-0.651-0.854-1.232-1.536-1.693-1.974
						C155.323,165.149,155.869,165.799,156.609,166.576z"/>
					<path fill="#20B8F1" d="M154.457,162.98c0.303,0.262,0.492,0.385,0.688,0.528C154.45,162.192,153.953,161.413,154.457,162.98z"
						/>
					<path fill="#20B8F1" d="M153.995,164.211c0.092-0.265,0.449-0.036,0.921,0.392c-0.359-0.472-0.635-0.885-0.771-1.157
						C154.134,163.64,154.107,163.9,153.995,164.211z"/>
					<path fill="#20B8F1" d="M208.485,219.468c-0.063-0.284-0.12-0.547-0.195-0.889
						C208.836,222.435,208.793,221.825,208.485,219.468z"/>
					<path fill="#20B8F1" d="M208.982,253.141c-0.042-0.085-0.079-0.157-0.12-0.24c-0.019-0.054-0.042-0.122-0.06-0.174
						L208.982,253.141z"/>
					<path fill="#20B8F1" d="M210.978,256.821c-2.793-6.178-2.629-5.401-2.175-4.095c0,0-1.546-3.581-3.092-7.162
						c-1.522-3.582-3.045-7.164-3.045-7.164s2.108,4.603,4.217,9.206C208.93,252.214,210.978,256.821,210.978,256.821z"/>
					<path fill="#20B8F1" d="M218.386,250.593l0.024,6.938c-0.019,10.434-0.015,8.248-0.03,16.716
						c-0.002-11.859,0.021-12.336,0.039-12.813c0.02-0.476,0.041-0.953,0.111-12.315l-0.021,4.926
						c-0.005,0.369-0.006,0.451-0.01,0.813c-0.028,5.552-0.001,1.465,0.036-3.478c0.037-4.959,0.086-10.774,0.088-8.922
						c-0.024,3.737-0.031,4.752-0.05,7.693l0.026-5.081c-0.014,1.866-0.014,1.9-0.027,3.767l-0.014-1.208l-0.004,0.626
						c0.005-2.772,0.015-7.892,0.02-10.29c-0.045,3.204,0.003,2.15-0.02,4.834l-0.037-4.718c-0.043,5.554-0.018,10.53,0.016,9.571
						c-0.081,10.686-0.071,9.344-0.076,7.026c0.001-2.35-0.02-5.622-0.065,0.604l0.027,2.426c-0.021,6.662-0.025,8.271-0.046,14.87
						c-0.001-1.669-0.002-6.768-0.003-11.159c0.011-4.758,0.038-9.739-0.008-12.131c-0.024,1.632-0.044,2.435-0.112-1.447
						c0.033,7.158-0.01,5.522-0.065,5.302l0.089,9.326c-0.109-5.477-0.144-7.177-0.227-11.352c-0.086,1.139,0.034,8.238,0.148,14.19
						c-0.012,0.785-0.07-2.036-0.126-5.278c-0.058-3.238-0.105-6.911-0.215-7.558c-0.047,3.717-0.224,0.143-0.701-4.66
						c0.009,3.207,0.274,5.278,0.344,7.841l-0.467-6.741c-0.026,0.21,0.101,2.304,0.162,3.363c-0.262-2.511-0.471-8.601-0.85-10.614
						c-0.327-4.656-0.28-1.04-0.197,2.368c0.073,3.429,0.193,6.585-0.438,1.557c0.146,2.422,0.51,5.039,0.782,8.268
						c-0.479-3.237-0.721-4.378-0.961-5.817c-0.256-1.436-0.51-3.17-1.3-7.464c0,0,0.067,1.398,0.135,2.797
						c0.084,1.387,0.168,2.773,0.168,2.773c-0.534-6.235-1.802-13.124-3.229-18.574c-0.034-0.374-0.068-0.741-0.102-1.101
						c-0.089-0.744-0.176-1.473-0.261-2.182c-0.186-1.56-0.361-3.037-0.523-4.404c-0.313-2.71-0.552-4.922-0.691-6.354
						c0,0-0.646-2.368-1.294-4.736c-0.669-2.372-1.393-4.751-1.393-4.751c0.332,3.11,1.534,9.466,2.917,17.15
						c-0.323-1.575-0.636-3.099-0.896-4.369c0.185,1.763,0.454,3.751,0.781,5.902c0.179,1.127,0.352,2.213,0.531,3.342
						c0.104,0.606,0.209,1.224,0.32,1.875c0.369,2.035,0.827,4.224,1.272,6.378c-0.165-1.663-0.335-3.371-0.502-5.057
						c0.938,4.691,1.851,9.968,2.498,14.655c-0.167-0.896-0.353-1.642-0.497-2.034c0.235,1.286,0.431,2.444,0.536,3.249
						c0.108,0.849-0.205-0.88-0.611-2.84l1.288,8.889l-0.588-3.483c0,0,0.082,1.458,0.165,2.916
						c0.114,1.438,0.229,2.875,0.229,2.875c-1.978-8.581-5.291-20.963-7.591-23.937c1.9,6.079,2.635,10.104,4.542,17.438
						c-0.878-3.931-0.466-3.18,0.105-1.644c0.577,1.525,1.297,3.848,1.313,2.963c-0.027,0.918,0.81,4.441,1.115,5.664
						c0,0-0.523-1.735-1.1-3.446c-0.571-1.711-1.202-3.416-1.202-3.416c1.506,6.019,0.975,4.57,1.469,7.104
						c-2.942-11.896-2.636-7.689-4.047-11.191c1.158,3.94,2.424,7.944,2.481,6.886c1.066,4.489,0.002,1.062-1.226-2.504
						c-1.206-3.571-2.571-7.279-1.635-3.483c0.137,0.068,0.008-0.551,0.67,1.432c-1.345-3.408-1.097-0.521,0.215,2.842l0.12,0.06
						c-0.083,0.763-0.508,0.856-1.451-0.451c-0.938-1.324-2.46-4.033-4.565-8.911c0.527,1.245,4.926,11.645,5.804,13.722
						c0,0-3.586-8.191-7.572-16.355c-1.008-2.041-2.017-4.083-2.962-5.997c-1.935-4.059-3.739-7.846-5.287-11.092
						c-3.218-6.562-5.362-10.937-5.362-10.937c2.102,4.475,4.83,10.524,7.852,17.219c1.755,3.899,3.687,8.193,5.544,12.321
						c2.997,6.613,5.883,12.771,7.149,15.127c0.394,1.191,0.925,2.592-0.721-0.361c-0.501-1.185-5.366-12.086-5.904-12.848
						c1.802,4.338,2.329,5.605,2.893,6.962c0.438,1.07,0.754,1.97,2.511,5.932c-0.743-1.788-7.371-14.908-7.553-14.522
						c1.039,1.968,6.534,12.959,7.301,14.331c0,0-1.745-3.231-3.574-6.469c-1.863-3.244-3.726-6.488-3.726-6.488
						c1.421,2.353,5.737,10.942,7.583,14.582c-1.296-2.527-0.292,0.188-1.114-1.126l-1.425-2.966c0.229,0.929-2.453-3.667-5.36-8.44
						c-2.892-4.77-5.995-9.753-6.343-9.542c1.756,2.744,9.98,16.682,10.658,18.254c-2.062-3.378-7.05-11.51-12.244-19.549
						c-2.014-3.152-4.048-6.336-6.047-9.465c-2.232-3.486-4.375-6.789-6.337-9.768c-3.924-5.96-7.131-10.621-8.894-12.923
						l4.199,6.971c0,0-1.451-1.971-2.902-3.941c-1.456-1.943-2.912-3.888-2.912-3.888c2.944,4.388,6.827,10.176,11.197,16.688
						c2.117,3.2,4.351,6.575,6.644,10.043c1.037,1.573,2.088,3.167,3.146,4.771c0.661,0.984,1.327,1.975,1.993,2.966
						c5.291,7.895,10.162,15.441,12.845,19.639c1.648,2.987,2.704,4.535,2.232,4.093c2.174,3.604,3.511,5.551,3.682,5.771
						c0,0,0.263,0.551,0.525,1.103c0.282,0.555,0.565,1.11,0.565,1.11c-4.999-7.954-5.47-8.183-9.821-14.891
						c0,0,1.527,2.166,3.055,4.332c1.461,2.129,2.922,4.258,2.922,4.258c-2.457-3.955-6.062-9.614-9.152-14.203
						c-3.066-4.601-5.659-8.109-5.597-7.628c1.931,3.124,9.534,14.462,11.239,17.127c-1.846-2.801-3.979-5.584-2.702-3.63
						l3.078,4.467c0.894,1.47-0.975-1.285-2.513-3.485c-1.523-2.196-2.734-3.832-0.21-0.001c0.225,0.429,7.04,10.532,3.658,5.581
						c-3.561-5.251-9.925-14.636-16.16-23.831c-4.333-6.366-8.577-12.602-12.176-17.889c-4.199-6.119-7.602-11.076-9.719-14.161
						c0.313,0.503,2.528,4.057,5.298,8.268c2.765,4.227,6.017,9.155,8.449,12.693c6.487,9.36,12.72,18.354,18.275,26.369
						c-1.34-1.917-3.506-5.016-4.38-6.267c1.262,1.87,5.048,7.275,4.093,5.986c-6.101-8.761,0.021,0.201-5.245-7.509
						c-2.021-2.807,0.987,1.484,0.442,0.765c-3.975-5.701-12.91-18.52-17.767-25.486c2.043,2.928,4.769,6.835,6.156,8.824
						c0.011-0.086,0.66,0.802,1.301,1.617c0.668,0.8,1.239,1.565,1.133,1.151c1.563,2.219,3.376,4.65,6.265,8.968
						c-1.192-1.811-3.479-5.191-3.694-5.696c2.819,3.968,3.069,4.45,3.46,5.129c0.401,0.688,0.958,1.565,4.343,6.45
						c-3.857-5.642-5.416-8.365-7.888-12.357c-2.992-4.401-3.222-4.573-2.419-3.177c0.802,1.401,2.659,4.339,3.919,6.259
						c-1.989-2.936-4.007-5.914-6.157-9.088c-1.035-1.548-2.095-3.134-3.19-4.773c-1.157-1.758-2.345-3.563-3.568-5.421
						c-4.564-7.037-8.43-13.117-10.561-17.102c-2.233-4.528,6.468,9.3,5.098,7.03c2.014,0.976-16.273-27.396-8.496-18.011
						c3.146,4.475,6.046,9.193,8.742,13.631c2.689,4.438,5.171,8.597,7.316,11.961c2,4.29-4.143-4.94-4.09-4.079l3.041,3.895
						c1.944,3.383,3.379,6.255,1.587,3.769c0.697,1.004,1.236,1.756,1.66,2.268c0.375,0.441,0.653,0.706,0.867,0.85
						c0.423,0.287,0.588,0.087,0.805-0.141c0.188-0.235,0.41-0.499,0.891-0.326c0.457,0.165,1.202,0.786,2.387,2.32
						c-0.767-1.497-1.709-3.338-2.453-4.792c-0.44-0.842-0.847-1.611-1.362-2.528c-0.514-0.913-1.056-1.831-1.639-2.751l0.573,1.701
						c-4.745-7.344-5.751-11.344-8.161-14.455c-2.78-5.908-7.01-15.043-3.804-11.37l6.155,10.835
						c-1.759-3.193-4.037-6.08-2.366-2.561c-1.216-2.563,1.113,0.875,2.729,3.142c1.619,2.259,2.557,3.36-1.141-3.989l-4.615-7.144
						c-2.501-5.988-7.85-18.352-5.156-15.488c-6.03-10.636,0.481,1.381-6.814-10.921c4.419,7.73,3.778,7.984,3.243,8.304
						c-0.553,0.322-0.965,0.712,3.923,8.688c-4.266-7.133-5.392-8.472-6.387-9.529c-0.999-1.052-1.874-1.824-5.81-7.73
						c2.063,3.579,4.174,6.653,2.475,5.462c0.568,1.078,1.261,2.477,1.663,3.298c-0.075-0.078-0.117-0.133-0.199-0.23
						c0.099,0.138,0.185,0.258,0.281,0.394c0.279,0.563,0.342,0.678,0.098,0.136c1.061,1.434,2.263,3.218,3.452,5.182
						c4.37,8.541,3.393,9.158,5.661,13.718c-1.307-1.373-2.31-4.247-4.741-7.89c0,0,0.839,1.705,1.678,3.409
						c0.857,1.703,1.715,3.406,1.715,3.406c-4.765-7.909-8.823-12.287-10.829-17.753l-0.966,0.38
						c-3.132-4.026-4.904-5.199-3.106-1.517c-1.41-1.388,4.89,9.605,1.156,3.112c0,0,0.531,1.51,1.154,2.99
						c0.615,1.489,1.231,2.978,1.231,2.978l-1.31-1.977c-0.37,0.015-0.03,0.932,0.456,2.146c0.485,1.213,1.176,2.69,1.646,3.729
						c0.465,1.04,0.607,1.701,0.077,1.195c-0.538-0.502-1.84-2.114-4.429-5.559c1.356,2.239,3.08,4.992,1.461,2.996l-4.92-7.044
						c0.866,1.327-0.361-0.316-1.181-1.38c-0.813-1.063-1.149-1.588,1.48,2.206c-2.275-3.248-4.085-5.833-6.176-8.818
						c-0.907-1.362-0.87-1.401-0.476-0.92c0.373,0.498,1.204,1.425,1.758,2.056c0.56,0.625,0.869,0.929,0.373-0.033l6.787,9.813
						c-0.032-0.307,0.504,0.226,1.452,1.334c0.983,1.077,2.37,2.735,3.991,4.721l6.001,8.922c2.693,3.679,1.983,2.076,0.725-0.391
						c-1.238-2.472-2.92-5.919-2.137-5.596c-2.386-3.524-2.007-2.511-0.782-0.329c-3.146-5.284-3.91-7.122-3.438-7.068
						c0.474,0.05,2.117,2.041,3.954,4.196c1.818,2.164,3.733,4.563,4.658,5.404c0.949,0.821,0.916,0.077-1.166-4.106
						c2.477,3.432,1.989,2.129,0.788-0.494c-0.047-0.007-0.187-0.176-0.397-0.478c-0.032-0.136,0.012-0.184,0.083-0.188
						c-0.841-1.784-1.834-3.864-2.575-5.561c1.25,2.51,2.267,4.576,2.676,5.556c0.409,0.076,1.571,1.112,3.433,3.467l-5.985-10.941
						c0.121,0.123,0.14,0.084,0.287,0.251c-1.791-4.278,3.278,4.993,7.679,13.286c1.234,1.699,2.647,3.786,4.272,6.382
						c-4.767-8.911-3.632-7.563-2.589-6.323c1.069,1.217,2.036,2.333-2.844-7.41c2.686,4.611,4.191,6.146,6.407,9.01
						c2.207,2.866,5.019,7.128,10.178,17.265c-1.306-2.648-1.804-3.945-2.117-4.043c-0.693-2.442-1.259-4.986,1.956,0.688
						l-6.841-14.926c0,0,2.653,4.903,5.306,9.807c2.637,4.924,5.204,9.91,5.204,9.91c-3.561-9.322-5.51-14.912-11.561-26.192
						c5.002,8.53,6.057,10.147,7.138,11.696c1.047,1.575,2.109,3.098,6.534,11.948l-4.183-9.97c0.353,0.096,2.121,3.421,3.374,5.702
						c1.261,2.277,2.025,3.5,0.563-0.731c-3.145-9.8-1.681-11.104,0.115-12.271c0.225-0.149,0.453-0.302,0.684-0.456
						c0.07,0.004,0.077-0.213,0.113-0.325l0.09-0.413l0.172-0.863c0.22-1.188,0.401-2.53,0.493-4.19l0.009-0.156l0.03-0.088
						l0.062-0.176l0.117-0.374c0.075-0.26,0.145-0.541,0.208-0.845c0.127-0.607,0.228-1.308,0.3-2.121
						c0.143-1.627,0.166-3.704,0.034-6.375c3.987,16.948,3.426,13.05,2.781,8.164c-0.645-4.887-1.231-10.786,1.934,2.306
						c-1.695-8.049-2.109-12.729-4.446-19.511c2.041,3.655,2.135,0.268,2.628-1.312c0.454-1.556,1.297-1.31,4.123,9.623
						c-1.27-8.12-2.713-11.676-3.403-16.489c0.532,1.699,2.057,6.827,1.401,1.994c-0.636-4.823-1.57-6.685-2.646-10.102
						c2.902,0.906,7.198,25.619,11.156,48.79c-1.026-11.225-0.185-9.748,2.512,5.264c-0.87-7.655-1.417-15.688-2.884-18.154
						c0.223-0.628,0.757-3.615,1.559-4.119c0.833-0.511,1.784,1.464,2.794,10.646c-0.345-4.71,0.57-1.561,0.898,0.512
						c0.914-1.435,0.94-3.09,2.018-1.704l-0.031,3.061c1.017,10.878,1.239,11.993,1.362,10.702c0.107-1.296,0.158-4.984,0.527-3.847
						l-0.15-2.214c0.257-8.173,0.609-6.333,0.782-4.845c0.22,1.518,0.347,2.69,0.646-6.418l0.432,13.274
						c0.599,14.21,0.607,9.755,0.715,3.155c0.139-6.608,0.219-15.329,0.604-10.213l-0.024,7.602c0.227,4.635,0.19-5.096,0.242-16.29
						c0.021-11.215,0.211-23.875,0.318-25.646c0.031-2.419-0.104-3.795-0.279-5.553c0.383-8.215,0.385-4.021,0.453,2.644
						c0.051,6.67,0.11,15.878,0.344,17.618c0.042-9.001-0.264-22.746,0.098-24.511c0.065-3.637,0.416,3.556,0.627,9.338
						c0.154,5.794,0.288,10.175,0.451,1.7c-0.09,6.748-0.158,13.565-0.074,18.38c0.039,0.514,0.093-0.869,0.158-2.887
						c0.033-2.141,0.069-4.498,0.104-6.751c0.061-4.141,0.109-5.882,0.053,4.272c0.021-2.311,0.035-3.757,0.049-5.173
						c0.001,0.984,0.003,2.213,0.006,3.563c-0.024,1.165-0.052,2.431-0.078,3.673c-0.056,2.699-0.111,6.096-0.159,11.467
						c0.118-20.479,0.038-15.842-0.192-11.031c-0.188,4.841-0.321,9.933-0.303-8.244c0.013,0.001-0.099,0.291-0.259,0.571
						c-0.143,0.278-0.286,0.557-0.286,0.557l0.002-3.64c-0.194-1.43-0.318-0.034-0.391,2.734c-0.091,2.771-0.147,6.926-0.18,11.064
						c-0.127-2.547-0.086-5.741-0.094-7.588c-0.771-7.924-0.874-6.303-1.175,10.181l-0.33-11.269
						c-0.021,3.163-0.413-1.524-0.932-5.375c-0.571-3.854-1.301-6.842-1.537-0.827c-0.044-1.226-0.116-3.321-0.098-4.807
						c-0.312,6.018-1.484-1.912-2.467-6.298c-1.03-4.389-1.896-5.313-0.728,13.725l-0.198,8.95
						c0.747,1.762,0.963,5.935,1.224,10.398c0.243,4.479,0.45,9.313,0.913,12.641c-0.104,0.959-0.589-2.118-1.033-5.606
						c-0.442-3.491-0.833-7.405-0.64-8.219l0.247,1.952c-1.46-19.686-2.091-7.777-3.348-21.102
						c-0.684,0.042-1.442-0.646-2.254-1.714c-0.807-1.072-1.768-2.417-2.702-3.857c-1.875-2.874-4.021-5.689-5.776-6.042
						l2.886,14.54l-1.204-0.845c-0.888-3.381-2.469-11.326-1.526-10.754c-1.932-8.212-0.136,6.941,0.479,10.076
						c-1.312-2.889-2.008-7.089-2.377-10.635c-0.377-3.544-0.438-6.429-0.734-6.577l-0.509,1.148l0.485,1.67
						c0.569,5.943,1.773,12.174,0.677,11.572c-1.202-2.808-2.161-8.814-2.528-9.338c-0.211-1.016-0.401-1.482-0.481-0.348
						c0,0-0.447-0.241-0.895-0.482c-0.449-0.244-0.901-0.472-0.901-0.472l3.114,11.174c0.62,5.65-1.41-0.339,2.103,12.293
						c-1.33-4.878-2.426-7.69-3.354-9.256c-0.922-1.537-1.675-1.846-2.293-1.698c-1.255,0.283-1.936,2.32-3.063-0.606
						c1.474,8.443,0.754,8.604-0.465,8.065c0.945,2.206,4.839,14.634,3.709,13.465c-3.873-12.949-5.082-15.564-6.179-17.213
						c-1.101-1.657-1.997-2.315-5.438-11.381c4.67,11.927-1.332,4.296,5.618,21.175c-1.323-1.704-3.383-9.58-6.016-15.33
						c0.964,5.436-0.409,4.336-2.239,2.495c-1.808-1.848-4.099-4.451-4.374-2.108c1.363,3.362,3.751,8.262,5.449,13.519
						c0,0-1.969-4.003-3.938-8.006c-2.012-3.994-4.022-7.988-4.022-7.988c0.296,1.922,7.952,19.506,2.313,8.435
						c1.318,2.733,3.279,6.86,3.535,8.107c-2.562-3.392-3.958-3.87-4.76-3.13c-0.81,0.741-1.021,2.705-1.395,4.237
						c-0.381,1.534-0.928,2.631-2.6,1.696c-1.679-0.93-4.493-3.91-9.588-10.438c4.046,5.803,4.1,6.741,3.929,7.326
						c1.068,1.271,4.617,7.998,7.194,12.335c0,0-2.05-2.694-4.099-5.389c-2.1-2.673-4.198-5.345-4.198-5.345
						c3.507,6.177,3.347,6.765,3.143,7.273c-0.203,0.507-0.437,0.943,3.096,6.748l-0.964-2.514
						c3.981,7.079,8.832,14.389,13.887,22.176c1.186,1.826,2.403,3.7,3.618,5.57c1.191,1.86,2.378,3.713,3.537,5.521
						c2.373,3.743,4.769,7.615,7.165,11.591c-4.156-7.228-0.841-2.338,1.945,1.922c2.809,4.226,5.067,7.861-0.66-2.863
						c1.964,3.23,2.931,5.409,5.126,9.154c-3.917-7.168-4.614-8.876-2.667-5.991l0.949,1.805c-0.44-2.628,3.622,4.131,6.49,8.415
						l-4.287-8.638c0.697,0.976,2.044,3.678,3.151,5.797c-6.235-13.487-0.705-0.249-7.672-14.984
						c4.434,8.678,4.677,8.448,5.084,8.501c0.406,0.067,0.962,0.433,5.651,10.801c0.218-0.1-4.703-10.367-4.449-10.497l2.541,5.604
						l-3.146-7.38c0.678,1.019,3.81,8.096,5.88,12.94c-0.272-0.545,0.512,1.438,0.667,1.88c1.513,3.283,1.333,2.631,0.925,1.393
						c-0.412-1.235-1.05-3.047-0.57-1.96l-1.632-3.388c-0.892-2.969-0.366-2.749-0.173-3.288c0.21-0.551,0.079-1.878-1.726-8.312
						l-1.65-4.523c-1.176-4.47-0.593-3.334,0.151-1.586c0.757,1.741,1.66,4.059,1.354,1.854l0.33,1.123
						c-1.351-4.712-1.879-7.206-1.499-6.798c1.522,5.573,3.573,10.476,5.21,16.669c-1.148-4.813-1.585-6.704-2.37-9.584
						c-0.771-2.89-1.905-6.766-4.117-15.698l2.354,7.779c-1.812-7.193-2.83-10.95-2.87-13.218c0.703,3.479,1.61,6.443,2.558,9.695
						c0.954,3.248,1.942,6.787,2.99,11.336c2.685,8.484,1.713,4.062,1.121,0.605c-0.623-3.435-0.937-5.901,2.233,6.82
						c-4.801-22.15-3.657-12.069-4.574-16.826c-0.991-3.568-1.928-7.699-2.463-10.686c-0.542-2.99-0.683-4.822-0.231-3.743
						c0.251,0.211,2.053,7.239,3.806,14.157c1.765,6.932,3.446,13.753,3.681,13.52c-0.081-0.104,0.27,1.571,0.194,1.482
						c0.703,2.807,0.391,0.903,0.202-0.571c-0.194-1.47-0.26-2.508,0.768,2.085c-2.445-13.37,0.475,0.79-2.681-16.264
						c0,0,0.014,0.976,0.028,1.95c0.026,0.979,0.053,1.96,0.053,1.96c-0.263-2.238-1.261-8.32-1.812-12.645
						c-0.561-4.333-0.66-6.837,0.581-1.943c0.532,3.424,1.114,7.909,1.44,10.412c1.079,5.053-0.212-3.272,0.881,1.915
						c1.42,8.514,1.415,9.414,1.286,9.804c-0.121,0.38-0.406,0.288,0.707,6.785c0.764,3.61,0.29,0.526,0.088-1.146
						c-0.203-1.674-0.19-1.928,1.428,7.299c-2.057-11.734-1.741-10.965-1.345-9.509c0.417,1.455,0.884,3.621-0.351-5.268
						l1.61,10.173c-0.212-1.589-0.847-6.371-0.693-6.067l1.893,13.131c-0.78-5.603-0.26-3.09,0.292,0.028
						c0.562,3.125,1.154,6.863,0.808,3.864c-0.143,0.075-0.618-2.967-1.196-6.984c-0.583-4.013-1.242-8.967-1.92-12.708
						c-0.563-6.649,0.514,0.077,1.63,7.773c1.139,7.723,2.314,16.473,2.216,14.167c0.135,1.391-0.988-6.138-1.455-10.729
						c0.386,2.115,0.979,6.039,1.617,11.299c0.009-0.953-0.269-3.507-0.645-6.593c-0.372-3.083-0.86-6.711-1.106-9.705
						c1.475,12.197-0.343-4.798-0.455-8.47l1.013,10.037c1.081,6.773-1.852-20.719-0.579-12.53l1.019,13.6l-0.093-3.37l0.929,11.236
						c-0.525-8.205-0.219-5.935,0.169-2.634c-0.271-3.465-0.598-7.902-0.818-11.469c-0.11-1.784-0.194-3.35-0.234-4.47
						c-0.041-1.121-0.038-1.797,0.019-1.807c0.544,5.937,0.538,9.141,0.744,8.075c0.301,5.959,0.775,13.545,0.062,4.48
						c0.185,2.901,0.401,6.309,0.584,9.182c0.55,6.751,0.328,1.743,0.392,1.753c-0.044-0.389-0.1-0.942-0.203-2.336
						c0,0-0.127-3.24-0.254-6.479c-0.096-3.196-0.192-6.393-0.192-6.393c0.246,3.653,0.346,6.458,0.464,9.232
						c0-0.958-0.18-5.269-0.113-5.94c0.279,6.336,0.464,10.502,0.845,19.144c0,0-0.064-2.083-0.129-4.165
						c-0.047-2.054-0.094-4.108-0.094-4.108c0.166,3.356,0.467,9.238,0.561,12.007c0.117,2.276-0.003-1.358-0.063-4.729
						c-0.063-3.386-0.086-6.486,0.044-3.503c-0.031-1.423-0.055-2.768-0.054-3.764c0.08,0.962,0.189,3.722,0.25,5.006
						c0.06,1.294,0.079,1.101,0.076-3.636l0.173,12.845c-0.043-5.266-0.049-6.019-0.079-9.641c-0.05-4.253-0.097-8.78-0.035-10.885
						c0.077-3.605,0.093,10.816,0.133,14.388c0.011-2.744,0.025-6.598,0.039-10.293c0.035-2.555,0.077-2.986,0.086,2.099
						C218.411,251.646,218.408,249.774,218.386,250.593z M218.364,249.149c0.031,1.434,0.043,6.047,0.057,1.677
						C218.42,242.516,218.403,246.64,218.364,249.149z M212.189,239.599c0.435,1.905,0.376,0.871,0.155-1.466
						C212.152,237.71,212.056,238.009,212.189,239.599z M155.529,173.115c0.087,0.156,0.149,0.268,0.241,0.433
						C153.348,170.626,154.291,171.796,155.529,173.115z M158.545,175.989c-0.648-1.275-1.371-2.452-2.13-3.607
						c1.259,2.216,1.17,2.55,0.609,2.158C158.446,176.715,159.484,178.144,158.545,175.989z M192.725,153.2l0.749,2.438
						C193.543,158.434,193.162,155.962,192.725,153.2z"/>
					<path fill="#20B8F1" d="M214.401,247.21c-0.155-1.156-0.293-2.188-0.44-3.292C214.146,244.904,214.312,246.075,214.401,247.21z
						"/>
					<path fill="#20B8F1" d="M217.849,253.448c-0.002-0.039-0.004-0.071-0.006-0.108c0.014,0.585,0.026,1.108,0.039,1.629
						L217.849,253.448z"/>
					<path fill="#20B8F1" d="M201.763,250.231c-0.908-1.341-1.511-2.229-2.058-3.035
						C200.742,248.692,201.574,249.929,201.763,250.231z"/>
					<path fill="#20B8F1" d="M155.238,156.98c0,0,0.122,0.694,0.244,1.39c0.132,0.696,0.264,1.393,0.264,1.393
						c0.102-0.689,1.249,1.106,2.161,2.355C156.803,160.107,155.084,157.286,155.238,156.98z"/>
					<path fill="#20B8F1" d="M187.27,207.229c-0.427-1.097,0.08-0.2-0.361-1.338l-1.911-4.097
						C184.83,202.269,186.229,205.775,187.27,207.229z"/>
					<path fill="#20B8F1" d="M171.197,185.292c3.917,7.257,2.876,4.491,2.548,2.833c-0.008,0.045,0.003,0.124-0.064,0.055
						C168.487,177.848,169.796,181.583,171.197,185.292z"/>
					<path fill="#20B8F1" d="M173.702,187.808c-0.065-0.438-0.048-0.729,0.243-0.469
						C171.889,183.192,173.363,186.601,173.702,187.808z"/>
					<path fill="#20B8F1" d="M156.713,170.171c1.28,1.674-5.31-9.302-3.468-6.479c-2.577-4.682-1.309-1.605,0.438,1.906
						C155.435,169.109,157.636,173.061,156.713,170.171z"/>
					<polygon fill="#20B8F1" points="184.135,209.082 179.294,200.176 182.985,207.599 					"/>
					<path fill="#20B8F1" d="M178.628,204.908l1.767,1.952c-0.85-1.488-1.299-2.433-1.615-3.185
						C178.384,203.699,177.105,202.281,178.628,204.908z"/>
					<path fill="#20B8F1" d="M178.779,203.676c0.23,0.015,0.247-0.328-0.487-1.883C178.271,201.976,178.275,202.46,178.779,203.676z
						"/>
					<polygon fill="#20B8F1" points="184.964,212.223 183.91,210.608 183.328,210.336 					"/>
					<path fill="#20B8F1" d="M175.204,209.292c0,0,0.416,0.795,0.832,1.589c0.412,0.797,0.857,1.591,0.857,1.591
						c2.063,3.12,3.278,4.813,2.467,3.357C177.937,213.551,177.163,212.138,175.204,209.292z"/>
					<path fill="#20B8F1" d="M189.625,229.365c-1.037-1.446-2.129-3.13-3.753-5.544l6.054,9.408L189.625,229.365z"/>
					<path fill="#20B8F1" d="M190.958,232.945c1.688,2.608,4.86,7.852,4.453,6.773C193.741,237.186,192.319,234.607,190.958,232.945
						z"/>
					<polygon fill="#20B8F1" points="187.485,229.231 187.303,229.031 174.916,210.995 					"/>
					<path fill="#20B8F1" d="M210.749,260.854c1.409,2.778-4.255-7.298-2.463-3.826c-1.722-2.818-1.448-2.828-2.924-5.261
						C207.288,254.771,206.41,253.116,210.749,260.854z"/>
					<path fill="#20B8F1" d="M205.362,251.768c-0.35-0.548-0.729-1.142-1.165-1.827C204.698,250.695,205.058,251.27,205.362,251.768
						z"/>
					<polygon fill="#20B8F1" points="152.113,166.272 149.222,162.977 153.393,168.831 					"/>
					<path fill="#20B8F1" d="M159.767,181.026l-7.5-11.617l6.456,10.947C158.483,179.717,158.029,178.466,159.767,181.026z"/>
					<path fill="#20B8F1" d="M218.341,268.926l-0.019-2.289c-0.016-2.49-0.01-2.699-0.001-3.13L218.341,268.926z"/>
					<polygon fill="#20B8F1" points="218.482,260.333 218.482,260.574 218.551,250.884 					"/>
					<path fill="#20B8F1" d="M218.369,272.469c0-0.444,0-0.973,0-1.422C218.378,272.929,218.291,259.404,218.369,272.469z"/>
				</g>
			</g>
		</g>
	</g>
</g>
<line fill="none" stroke="#00AEEF" stroke-width="20" stroke-miterlimit="10" x1="-3.169" y1="9.958" x2="346.479" y2="9.605"/>
<line fill="none" stroke="#00AEEF" stroke-width="20" stroke-miterlimit="10" x1="290.026" y1="0" x2="290.73" y2="310.21"/>
<line fill="none" stroke="#00AEEF" stroke-width="20" stroke-miterlimit="10" x1="9.169" y1="2.914" x2="9.169" y2="300"/>
<line fill="none" stroke="#00AEEF" stroke-width="20" stroke-miterlimit="10" x1="0" y1="289.885" x2="300" y2="290.236"/>
</svg>
